SplineFontDB: 3.2
FontName: ChromFixed-Italic
FullName: Chrom Fixed Italic
FamilyName: Chrom Fixed
Weight: Regular
Copyright:                                           
Version: 001.001
ItalicAngle: 0
UnderlinePosition: -100
UnderlineWidth: 50
Ascent: 800
Descent: 200
InvalidEm: 0
sfntRevision: 0x00000000
LayerCount: 2
Layer: 0 0 "Back" 1
Layer: 1 0 "Fore" 0
StyleMap: 0x0000
FSType: 0
OS2Version: 0
OS2_WeightWidthSlopeOnly: 0
OS2_UseTypoMetrics: 0
CreationTime: 0
ModificationTime: 1757284879
OS2TypoAscent: 0
OS2TypoAOffset: 0
OS2TypoDescent: 0
OS2TypoDOffset: 0
OS2TypoLinegap: 0
OS2WinAscent: 0
OS2WinAOffset: 0
OS2WinDescent: 0
OS2WinDOffset: 0
HheadAscent: 0
HheadAOffset: 0
HheadDescent: 0
HheadDOffset: 0
DEI: 91125
Encoding: AdobeStandard
UnicodeInterp: none
NameList: AGL For New Fonts
DisplaySize: -48
AntiAlias: 1
FitToEm: 0
BeginPrivate: 5
BlueValues 31 [-18 0 426 441 562 580 610 622]
OtherBlues 11 [-157 -157]
BlueScale 1 0
StdHW 4 [55]
StdVW 4 [55]
EndPrivate
BeginChars: 350 243

StartChar: exclam
Encoding: 33 33 1
Width: 600
Flags: HMW
HStem: -15 120<246.5 265>
VStem: 267 44<181 181>
LayerCount: 2
Fore
SplineSet
190 37 m 0
 190 71 228 105 265 105 c 0
 300 105 325 85 325 54 c 0
 325 14 285 -15 245 -15 c 0
 208 -15 190 8 190 37 c 0
267 181 m 1
 332 572 l 1
 410 572 l 1
 311 181 l 1
 267 181 l 1
EndSplineSet
EndChar

StartChar: quotedbl
Encoding: 34 34 2
Width: 600
Flags: HMW
HStem: 328 234<199 213 213 213 350 363 363 363>
VStem: 170 43<328 328> 199 80<562 562> 321 42<328 328> 350 79<562 562>
LayerCount: 2
Fore
SplineSet
170 328 m 1
 213 328 l 1
 279 562 l 1
 199 562 l 1
 170 328 l 1
321 328 m 1
 363 328 l 1
 429 562 l 1
 350 562 l 1
 321 328 l 1
EndSplineSet
EndChar

StartChar: numbersign
Encoding: 35 35 3
Width: 600
Flags: HMW
HStem: 202 160<103 166 166 166 103 255 255 349 349 349 438 497 497 497> 414 225<113 321 215 321 273 321 273 399 273 399 454 502 273 536 273 536>
VStem: 150 134<-63 -63> 332 165
LayerCount: 2
Fore
SplineSet
217 202 m 1
 349 202 l 1
 386 362 l 1
 255 362 l 1
 217 202 l 1
103 -63 m 1
 154 150 l 1
 64 150 l 1
 74 202 l 1
 166 202 l 1
 205 362 l 1
 103 362 l 1
 113 414 l 1
 215 414 l 1
 273 639 l 1
 321 639 l 1
 267 414 l 1
 399 414 l 1
 454 639 l 1
 502 639 l 1
 448 414 l 1
 536 414 l 1
 526 362 l 1
 438 362 l 1
 397 202 l 1
 497 202 l 1
 487 150 l 1
 384 150 l 1
 332 -63 l 1
 284 -63 l 1
 334 150 l 1
 204 150 l 1
 150 -63 l 1
 103 -63 l 1
EndSplineSet
EndChar

StartChar: dollar
Encoding: 36 36 4
Width: 600
Flags: HMW
HStem: -126 21G<198 254 198 198> 25 53<284 306 232 338> 506 52<333 333 333 367.5>
VStem: 56 53<17 17> 228 56<24 25> 432 58<174 189>
LayerCount: 2
Fore
SplineSet
56 17 m 1
 86 176 l 1
 141 176 l 1
 132 130 l 1
 162 99 207 78 257 78 c 0
 355 78 432 106 432 164 c 0
 432 214 365 245 301 268 c 0
 231 293 140 324 140 394 c 0
 140 531 281 557 333 558 c 1
 353 662 l 1
 409 662 l 1
 389 553 l 1
 423 549 452 531 479 516 c 1
 490 571 l 1
 544 571 l 1
 515 422 l 1
 460 422 l 1
 468 459 l 1
 434 481 391 506 344 506 c 0
 279 506 201 473 201 407 c 0
 203 358 295 333 352 312 c 0
 420 285 490 247 490 174 c 0
 489 75 392 25 284 25 c 1
 254 -126 l 1
 198 -126 l 1
 228 24 l 1
 182 34 152 48 120 68 c 1
 109 17 l 1
 56 17 l 1
EndSplineSet
EndChar

StartChar: percent
Encoding: 37 37 5
Width: 600
Flags: HMW
HStem: -15 57<317.5 362 317.5 366> 190 55<336 380> 371 57<227.5 272 227.5 276> 567 55<246 290>
VStem: 127 57<465 504.5 465 511> 217 57<79 118.5 79 125> 330 58<492 527> 420 58<106 141>
LayerCount: 2
Fore
SplineSet
274 94 m 0
 274 64 300 42 335 42 c 0
 389 42 420 84 420 128 c 0
 420 154 397 190 363 190 c 0
 309 190 274 143 274 94 c 0
217 85 m 0
 217 165 285 245 371 245 c 0
 444 245 478 189 478 139 c 0
 478 57 408 -15 324 -15 c 0
 258 -15 217 33 217 85 c 0
71 193 m 1
 67 245 l 1
 527 422 l 1
 532 368 l 1
 71 193 l 1
184 480 m 0
 184 450 210 428 245 428 c 0
 299 428 330 470 330 514 c 0
 330 540 307 567 273 567 c 0
 219 567 184 529 184 480 c 0
127 471 m 0
 127 551 195 622 281 622 c 0
 354 622 388 575 388 525 c 0
 388 443 318 371 234 371 c 0
 168 371 127 419 127 471 c 0
EndSplineSet
EndChar

StartChar: ampersand
Encoding: 38 38 6
Width: 600
Flags: HMW
HStem: -15 50<163.5 199.5> -1 56<396 511 360 521> 219 56<455 536 455 455> 492 51<315 367>
VStem: 53 53<109 131> 173 54<422 438.5>
LayerCount: 2
Fore
SplineSet
312 96 m 1
 227 265 l 1
 179 241 106 186 106 109 c 0
 107 58 142 35 185 35 c 0
 240 35 283 74 312 96 c 1
333 50 m 1
 287 9 227 -15 172 -15 c 0
 85 -15 53 44 53 96 c 0
 53 166 71 230 203 312 c 1
 187 348 170 384 173 422 c 0
 173 500 266 543 348 543 c 0
 394 543 440 533 470 501 c 1
 442 453 l 1
 424 478 385 492 349 492 c 0
 281 492 227 465 227 412 c 0
 228 380 245 347 248 343 c 2
 354 137 l 1
 390 177 415 232 423 275 c 1
 546 275 l 1
 536 219 l 1
 455 219 l 1
 439 176 413 126 377 90 c 1
 396 55 l 1
 521 55 l 1
 511 -1 l 1
 360 -1 l 1
 333 50 l 1
EndSplineSet
EndChar

StartChar: quotesingle
Encoding: 169 39 7
Width: 600
Flags: HMW
HStem: 325 21G<242 242 242 288> 542 20G<274 357 357 357>
LayerCount: 2
Fore
SplineSet
242 325 m 1
 274 562 l 1
 357 562 l 1
 288 325 l 1
 242 325 l 1
EndSplineSet
EndChar

StartChar: parenleft
Encoding: 40 40 8
Width: 600
Flags: HMW
HStem: -108 21G<218 218 218 269> 602 20G<377 429 420.5 429>
VStem: 170 51<86 221>
LayerCount: 2
Fore
SplineSet
218 -108 m 1
 192 -48 170 37 170 132 c 0
 170 310 245 459 377 622 c 1
 394 622 412 622 429 622 c 1
 320 480 221 321 221 134 c 0
 221 38 247 -49 269 -108 c 1
 218 -108 l 1
EndSplineSet
EndChar

StartChar: parenright
Encoding: 41 41 9
Width: 600
Flags: HMW
HStem: -108 21G<170 178.5 170 222> 602 20G<329 380 380 380>
VStem: 377 52<293 428>
LayerCount: 2
Fore
SplineSet
170 -108 m 1
 279 34 377 193 377 380 c 0
 377 476 351 563 329 622 c 1
 380 622 l 1
 406 562 429 477 429 382 c 0
 429 204 354 55 222 -108 c 1
 205 -108 187 -108 170 -108 c 1
EndSplineSet
EndChar

StartChar: asterisk
Encoding: 42 42 10
Width: 600
Flags: HMW
HStem: 257 350<190 366 337 337>
VStem: 116 368<443 443>
LayerCount: 2
Fore
SplineSet
137 289 m 1
 247 414 l 1
 116 443 l 1
 144 509 l 1
 274 470 l 1
 297 607 l 1
 366 607 l 1
 331 464 l 1
 475 509 l 1
 484 443 l 1
 335 415 l 1
 400 289 l 1
 337 257 l 1
 289 379 l 1
 190 257 l 1
 137 289 l 1
EndSplineSet
EndChar

StartChar: plus
Encoding: 43 43 11
Width: 600
Flags: HMW
HStem: 229 54<74 277 84 267 84 323 333 515>
VStem: 229 56<44 44>
LayerCount: 2
Fore
SplineSet
74 229 m 1
 84 283 l 1
 277 283 l 1
 315 470 l 1
 371 470 l 1
 333 283 l 1
 525 283 l 1
 515 229 l 1
 323 229 l 1
 285 44 l 1
 229 44 l 1
 267 229 l 1
 74 229 l 1
EndSplineSet
EndChar

StartChar: comma
Encoding: 44 44 12
Width: 600
Flags: HMW
HStem: -112 21G<193 193 193 257> 102 20G<314 406 406 406>
LayerCount: 2
Fore
SplineSet
193 -112 m 1
 314 122 l 1
 406 122 l 1
 257 -112 l 1
 193 -112 l 1
EndSplineSet
EndChar

StartChar: hyphen
Encoding: 45 45 13
Width: 600
Flags: HMW
HStem: 231 54<97 503 109 491>
VStem: 97 406<231 285>
LayerCount: 2
Fore
SplineSet
97 231 m 1
 109 285 l 1
 503 285 l 1
 491 231 l 1
 97 231 l 1
EndSplineSet
EndChar

StartChar: period
Encoding: 46 46 14
Width: 600
Flags: HMW
HStem: -15 124<292.5 309.5>
VStem: 228 144<35 55>
LayerCount: 2
Fore
SplineSet
228 35 m 0
 228 75 271 109 314 109 c 0
 350 109 372 84 372 55 c 0
 372 15 329 -15 290 -15 c 0
 252 -15 228 9 228 35 c 0
EndSplineSet
EndChar

StartChar: slash
Encoding: 47 47 15
Width: 600
Flags: HMW
HStem: -80 709<97 506>
VStem: 54 492
LayerCount: 2
Fore
SplineSet
54 -60 m 1
 506 629 l 1
 546 608 l 1
 97 -80 l 1
 54 -60 l 1
EndSplineSet
EndChar

StartChar: zero
Encoding: 48 48 16
Width: 600
Flags: HMW
HStem: -15 58 526 54<280.5 391>
VStem: 90 53<146 244.5 146 253.5> 451 59<342.5 422>
LayerCount: 2
Fore
SplineSet
143 181 m 0
 143 111 168 39 250 39 c 0
 371 39 451 214 451 392 c 0
 451 452 433 526 349 526 c 0
 212 526 143 308 143 181 c 0
90 178 m 0
 90 329 165 580 363 580 c 0
 474 580 510 491 510 402 c 0
 510 283 469 -15 241 -15 c 0
 119 -15 90 86 90 178 c 0
EndSplineSet
EndChar

StartChar: one
Encoding: 49 49 17
Width: 600
Flags: HMW
HStem: 0 55<91 281 102 281 336 497> 0 59 562 20G<439 439>
VStem: 281 55<55 55>
LayerCount: 2
Fore
SplineSet
91 0 m 1
 102 55 l 1
 281 55 l 1
 370 512 l 1
 196 475 l 1
 207 531 l 1
 439 582 l 1
 336 55 l 1
 508 55 l 1
 497 0 l 1
 91 0 l 1
EndSplineSet
EndChar

StartChar: two
Encoding: 50 50 18
Width: 600
Flags: HMW
HStem: 0 55<143 420 143 464> 0 59<51 62 62 62 62 464> 530 53
VStem: 160 56<424 424> 494 55<388.5 461>
LayerCount: 2
Fore
SplineSet
51 0 m 1
 62 59 l 1
 247 197 494 318 494 433 c 0
 494 489 439 527 367 527 c 0
 310 527 230 514 216 424 c 1
 160 424 l 1
 175 496 l 1
 241 568 306 580 383 580 c 0
 467 580 549 519 549 447 c 0
 549 330 506 285 143 55 c 1
 420 55 l 1
 433 127 l 1
 488 127 l 1
 464 0 l 1
 51 0 l 1
EndSplineSet
EndChar

StartChar: three
Encoding: 51 51 19
Width: 600
Flags: HMW
HStem: -15 55 247 60 565 57
VStem: 413 56
LayerCount: 2
Fore
SplineSet
72 23 m 1
 96 72 l 1
 145 48 197 36 256 36 c 0
 357 36 446 86 446 175 c 0
 446 247 327 250 266 247 c 1
 277 311 l 1
 280 311 l 2
 387 311 469 385 469 450 c 0
 469 506 414 527 355 527 c 0
 293 527 229 503 200 478 c 1
 185 529 l 1
 227 562 293 580 357 580 c 0
 445 579 528 539 528 460 c 0
 528 363 463 315 413 290 c 1
 443 283 505 259 505 185 c 0
 505 54 397 -15 273 -15 c 0
 206 -15 137 -3 72 23 c 1
EndSplineSet
EndChar

StartChar: four
Encoding: 52 52 20
Width: 600
Flags: HMW
HStem: 0 60 164 59<170 360 170 425 436 505> 499 65<428 428>
VStem: 340 66<56 56>
LayerCount: 2
Fore
SplineSet
170 223 m 1
 370 223 l 1
 428 499 l 1
 170 223 l 1
83 164 m 1
 93 216 l 1
 413 564 l 1
 504 564 l 1
 436 223 l 1
 516 223 l 1
 505 164 l 1
 425 164 l 1
 406 56 l 1
 486 56 l 1
 475 0 l 1
 222 0 l 1
 233 56 l 1
 340 56 l 1
 360 164 l 1
 83 164 l 1
EndSplineSet
EndChar

StartChar: five
Encoding: 53 53 21
Width: 600
Flags: HMW
HStem: -15 59 311 59 508 56<241 534 241 241>
VStem: 138 64<263 317> 403 63
LayerCount: 2
Fore
SplineSet
55 26 m 1
 77 82 l 1
 118 53 173 42 227 42 c 0
 334 42 438 101 438 195 c 0
 438 250 397 290 328 290 c 0
 281 290 217 272 175 253 c 1
 138 263 l 1
 196 564 l 1
 545 564 l 1
 534 508 l 1
 241 508 l 1
 202 317 l 1
 248 342 303 346 350 346 c 0
 431 346 501 285 501 202 c 0
 501 60 375 -15 228 -15 c 0
 172 -15 112 -2 55 26 c 1
EndSplineSet
EndChar

StartChar: six
Encoding: 54 54 22
Width: 600
Flags: HMW
HStem: -15 59 284 21G<236.5 301.5> 524 56<433 524>
VStem: 63 59 389 62<149 219.5>
LayerCount: 2
Fore
SplineSet
122 195 m 1
 111 118 151 40 236 40 c 0
 328 40 389 114 389 184 c 0
 389 255 335 284 268 284 c 0
 205 284 143 244 122 195 c 1
130 264 m 1
 161 305 220 341 281 341 c 0
 364 341 451 293 451 202 c 0
 451 82 370 -15 233 -15 c 0
 140 -15 63 45 63 193 c 0
 63 425 264 580 537 580 c 1
 524 524 l 1
 342 524 156 409 130 264 c 1
EndSplineSet
EndChar

StartChar: seven
Encoding: 55 55 23
Width: 600
Flags: HMW
HStem: 0 21G<158 158 158 217> 509 55<165 446 165 165>
VStem: 85 53<415 415> 446 58<505 509>
LayerCount: 2
Fore
SplineSet
158 0 m 1
 446 509 l 1
 165 509 l 1
 138 415 l 1
 85 415 l 1
 122 564 l 1
 515 564 l 1
 504 505 l 1
 217 0 l 1
 158 0 l 1
EndSplineSet
EndChar

StartChar: eight
Encoding: 56 56 24
Width: 600
Flags: HMW
HStem: -15 55 257 61 521 59
VStem: 72 64<91.5 177> 399 62
LayerCount: 2
Fore
SplineSet
136 121 m 0
 136 62 217 37 258 37 c 0
 326 37 425 78 425 171 c 0
 425 219 365 261 301 261 c 0
 254 261 136 235 136 121 c 0
202 390 m 0
 202 328 282 318 312 318 c 0
 394 318 467 370 467 444 c 0
 467 485 421 525 353 525 c 0
 316 525 202 503 202 390 c 0
204 293 m 1
 168 313 143 345 142 389 c 0
 142 509 253 580 369 580 c 0
 473 580 528 514 528 458 c 0
 528 363 461 301 408 293 c 1
 438 279 487 250 487 181 c 0
 487 62 392 -15 247 -15 c 0
 140 -15 72 36 72 132 c 0
 72 222 165 287 204 293 c 1
EndSplineSet
EndChar

StartChar: nine
Encoding: 57 57 25
Width: 600
Flags: HMW
HStem: -14 60 219 57<283 331.5> 526 54<326 419>
VStem: 145 57<361 412.5 343 417> 481 59
LayerCount: 2
Fore
SplineSet
481 356 m 1
 492 435 466 526 372 526 c 0
 280 526 202 456 202 369 c 0
 202 317 247 276 319 276 c 0
 392 276 455 317 481 356 c 1
59 -14 m 1
 71 42 l 1
 327 40 428 148 465 270 c 1
 424 227 361 219 302 219 c 0
 198 219 146 288 145 361 c 0
 145 473 244 580 376 580 c 0
 489 580 540 501 540 407 c 0
 540 179 432 -14 59 -14 c 1
EndSplineSet
EndChar

StartChar: colon
Encoding: 58 58 26
Width: 600
Flags: HMW
HStem: -15 124<262.5 279.5> 261 124<321.5 338.5>
VStem: 198 144<35 55>
LayerCount: 2
Fore
SplineSet
257 311 m 0
 257 351 300 385 343 385 c 0
 379 385 401 360 401 331 c 0
 401 291 358 261 319 261 c 0
 281 261 257 285 257 311 c 0
198 35 m 0
 198 75 241 109 284 109 c 0
 320 109 342 84 342 55 c 0
 342 15 299 -15 260 -15 c 0
 222 -15 198 9 198 35 c 0
EndSplineSet
EndChar

StartChar: semicolon
Encoding: 59 59 27
Width: 600
Flags: HMW
HStem: 261 124<362.5 379.5>
VStem: 158 64<-112 -112> 298 144<311 331>
LayerCount: 2
Fore
SplineSet
298 311 m 0
 298 351 341 385 384 385 c 0
 420 385 442 360 442 331 c 0
 442 291 399 261 360 261 c 0
 322 261 298 285 298 311 c 0
158 -112 m 1
 279 139 l 1
 372 139 l 1
 222 -112 l 1
 158 -112 l 1
EndSplineSet
EndChar

StartChar: less
Encoding: 60 60 28
Width: 600
Flags: HMW
HStem: 42 21G<431 431> 404 68<514 527>
VStem: 73 74<216 257>
LayerCount: 2
Fore
SplineSet
73 216 m 1
 91 298 l 1
 527 472 l 1
 514 404 l 1
 147 257 l 1
 448 104 l 1
 431 42 l 1
 73 216 l 1
EndSplineSet
EndChar

StartChar: equal
Encoding: 61 61 29
Width: 600
Flags: HMW
HStem: 138 61<54 514 65 502> 314 62<85 545 96 535>
LayerCount: 2
Fore
SplineSet
54 138 m 1
 65 199 l 1
 514 199 l 1
 502 138 l 1
 54 138 l 1
85 314 m 1
 96 376 l 1
 545 376 l 1
 535 314 l 1
 85 314 l 1
EndSplineSet
EndChar

StartChar: greater
Encoding: 62 62 30
Width: 600
Flags: HMW
HStem: 42 68<73 86> 410 62<152 169>
VStem: 453 74<257 298>
LayerCount: 2
Fore
SplineSet
73 42 m 1
 86 110 l 1
 453 257 l 1
 152 410 l 1
 169 472 l 1
 527 298 l 1
 509 216 l 1
 73 42 l 1
EndSplineSet
EndChar

StartChar: question
Encoding: 63 63 31
Width: 600
Flags: HMW
HStem: -15 118<184.5 197.5> 279 143<119 210> 518 54<285 351>
VStem: 119 54<422 422> 190 56<176 176> 426 54<388 454>
LayerCount: 2
Fore
SplineSet
125 28 m 0
 124 67 164 103 205 103 c 0
 239 103 261 79 261 55 c 0
 261 15 215 -15 180 -15 c 0
 146 -15 126 1 125 28 c 0
190 176 m 1
 210 279 l 1
 295 292 426 341 426 435 c 0
 426 473 397 518 305 518 c 0
 265 518 223 499 185 484 c 1
 173 422 l 1
 119 422 l 1
 140 531 l 1
 190 548 254 572 313 572 c 0
 408 572 480 525 480 440 c 0
 480 309 336 250 257 234 c 1
 246 176 l 1
 190 176 l 1
EndSplineSet
EndChar

StartChar: at
Encoding: 64 64 32
Width: 600
Flags: HMW
HStem: -14 37<196.5 283 196.5 288> 107 36<227 248.5 403 449> 361 37<305.5 355.5> 506 37<277 412.5>
VStem: 38 37<146 267 146 290.5> 171 37<175 223.5 175 231.5> 546 38<303 403.5>
LayerCount: 2
Fore
SplineSet
370 303 m 0
 373 320 374 361 337 361 c 0
 274 361 208 262 208 185 c 0
 208 165 214 143 240 143 c 0
 298 143 357 238 370 303 c 0
336 170 m 1
 311 137 269 107 228 107 c 0
 190 107 171 136 171 169 c 0
 171 294 255 398 349 398 c 0
 362 398 394 397 400 342 c 1
 424 392 l 1
 461 392 l 1
 402 266 l 2
 392 245 378 221 373 198 c 0
 367 163 390 143 416 143 c 0
 482 143 546 256 546 350 c 0
 546 457 463 506 362 506 c 0
 164 506 75 335 75 199 c 0
 75 93 143 23 250 23 c 0
 316 23 389 40 487 91 c 1
 495 55 l 1
 422 16 330 -14 246 -14 c 0
 88 -14 38 92 38 198 c 0
 38 383 179 543 375 543 c 0
 489 543 584 477 584 358 c 0
 584 239 507 107 406 107 c 0
 359 107 335 141 336 170 c 1
EndSplineSet
EndChar

StartChar: A
Encoding: 65 65 33
Width: 600
Flags: HMW
HStem: 0 54<-2 69 9 69 129 207 398 494 550 591> 161 54 503 54
VStem: -2 209<0 0> 387 204<0 0>
LayerCount: 2
Fore
SplineSet
225 220 m 1
 460 220 l 1
 396 514 l 1
 225 220 l 1
-2 0 m 1
 9 54 l 1
 69 54 l 1
 334 508 l 1
 195 508 l 1
 206 562 l 1
 444 562 l 1
 550 54 l 1
 602 54 l 1
 591 0 l 1
 387 0 l 1
 398 54 l 1
 494 54 l 1
 471 166 l 1
 192 166 l 1
 129 54 l 1
 218 54 l 1
 207 0 l 1
 -2 0 l 1
EndSplineSet
EndChar

StartChar: B
Encoding: 66 66 34
Width: 600
Flags: HMW
HStem: 0 54<13 106 24 106 162 321> 242 55<213 339 339 340 202 339> 508 54<128 198 116 394 255 323.5>
VStem: 106 56<54 54> 506 61<182 202.5> 526 60<392 468.5>
LayerCount: 2
Fore
SplineSet
162 54 m 1
 321 54 l 2
 395 54 506 80 506 171 c 0
 506 234 400 242 340 242 c 2
 202 242 l 1
 162 54 l 1
213 297 m 1
 339 297 l 2
 423 297 526 338 526 431 c 0
 526 506 392 508 255 508 c 1
 213 297 l 1
13 0 m 1
 24 54 l 1
 106 54 l 1
 198 508 l 1
 116 508 l 1
 128 562 l 1
 394 562 l 2
 491 562 586 532 586 439 c 0
 586 345 536 297 465 278 c 1
 516 268 567 233 567 182 c 0
 568 50 455 0 321 0 c 2
 13 0 l 1
EndSplineSet
EndChar

StartChar: C
Encoding: 67 67 35
Width: 600
Flags: HMW
HStem: -18 55<217.5 294> 526 54<294 386 263 387.5> 559 20G<536 591 591 591>
VStem: 49 58<154 308 154 313.5>
LayerCount: 2
Fore
SplineSet
474 103 m 1
 489 56 l 1
 418 11 334 -18 254 -18 c 0
 99 -18 49 82 49 211 c 0
 49 416 167 580 359 580 c 0
 413 580 459 564 524 518 c 1
 536 579 l 1
 591 579 l 1
 546 356 l 1
 491 356 l 1
 510 447 l 1
 474 494 420 526 355 526 c 0
 233 526 107 407 107 209 c 0
 107 99 165 37 270 37 c 0
 339 37 412 64 474 103 c 1
EndSplineSet
EndChar

StartChar: D
Encoding: 68 68 36
Width: 600
Flags: HMW
HStem: 0 54<-11 81 0 81 136 232> 508 54<104 172 92 351 227 227>
VStem: 535 56<265 437>
LayerCount: 2
Fore
SplineSet
136 54 m 1
 249 54 l 2
 431 54 535 178 535 352 c 0
 535 522 425 502 227 508 c 1
 136 54 l 1
-11 0 m 1
 0 54 l 1
 81 54 l 1
 172 508 l 1
 92 508 l 1
 104 562 l 1
 351 562 l 2
 483 562 591 529 591 366 c 0
 591 76 412 0 232 0 c 2
 -11 0 l 1
EndSplineSet
EndChar

StartChar: E
Encoding: 69 69 37
Width: 600
Flags: HMW
HStem: 0 54<-3 90 8 90 146 450> 253 54<197 351 186 362> 508 54<110 182 98 604 238 238 238 536>
LayerCount: 2
Fore
SplineSet
-3 0 m 1
 8 54 l 1
 90 54 l 1
 182 508 l 1
 98 508 l 1
 110 562 l 1
 604 562 l 1
 566 374 l 1
 509 374 l 1
 536 508 l 1
 238 508 l 1
 197 307 l 1
 362 307 l 1
 380 389 l 1
 437 389 l 1
 390 172 l 1
 334 172 l 1
 351 253 l 1
 186 253 l 1
 146 54 l 1
 450 54 l 1
 477 187 l 1
 534 187 l 1
 496 0 l 1
 -3 0 l 1
EndSplineSet
EndChar

StartChar: F
Encoding: 70 70 38
Width: 600
Flags: HMW
HStem: 0 54<-3 88 8 88 145 268> 253 54<196 351 185 362> 508 54<112 180 100 604 236 236 236 536>
VStem: 88 57<54 54> 337 56<181 181> 507 57<365 365>
LayerCount: 2
Fore
SplineSet
-3 0 m 1
 8 54 l 1
 88 54 l 1
 180 508 l 1
 100 508 l 1
 112 562 l 1
 604 562 l 1
 564 365 l 1
 507 365 l 1
 536 508 l 1
 236 508 l 1
 196 307 l 1
 362 307 l 1
 377 380 l 1
 434 380 l 1
 393 181 l 1
 337 181 l 1
 351 253 l 1
 185 253 l 1
 145 54 l 1
 280 54 l 1
 268 0 l 1
 -3 0 l 1
EndSplineSet
EndChar

StartChar: G
Encoding: 71 71 39
Width: 600
Flags: HMW
HStem: -18 55<198 291.5 198 291.5> 202 55<289 570 300 452 507 507 507 559> 525 55<283.5 375.5>
VStem: 19 57<162 320> 483 56<366 366>
LayerCount: 2
Fore
SplineSet
289 202 m 1
 300 257 l 1
 570 257 l 1
 559 202 l 1
 507 202 l 1
 474 28 l 1
 406 2 328 -18 255 -18 c 0
 86 -18 19 88 19 204 c 0
 19 436 170 580 341 580 c 0
 410 580 472 555 513 514 c 1
 526 580 l 1
 581 580 l 1
 539 366 l 1
 483 366 l 1
 498 442 l 1
 463 490 410 525 341 525 c 0
 226 525 76 434 76 210 c 0
 76 114 132 37 264 37 c 0
 319 37 358 49 427 70 c 1
 452 202 l 1
 289 202 l 1
EndSplineSet
EndChar

StartChar: H
Encoding: 72 72 40
Width: 600
Flags: HMW
HStem: 0 54<-27 64 -16 64 118 187 315 394 448 516> 258 54<170 434 159 445> 508 54<85 154 74 299 208 208 208 288 416 484 538 538 538 617>
VStem: 64 54<54 54> 394 54<54 54>
LayerCount: 2
Fore
SplineSet
-27 0 m 1
 -16 54 l 1
 64 54 l 1
 154 508 l 1
 74 508 l 1
 85 562 l 1
 299 562 l 1
 288 508 l 1
 208 508 l 1
 170 312 l 1
 445 312 l 1
 484 508 l 1
 405 508 l 1
 416 562 l 1
 628 562 l 1
 617 508 l 1
 538 508 l 1
 448 54 l 1
 527 54 l 1
 516 0 l 1
 304 0 l 1
 315 54 l 1
 394 54 l 1
 434 258 l 1
 159 258 l 1
 118 54 l 1
 198 54 l 1
 187 0 l 1
 -27 0 l 1
EndSplineSet
EndChar

StartChar: I
Encoding: 73 73 41
Width: 600
Flags: HMW
HStem: 0 54<36 223 48 223 282 446> 508 54<157 320 145 563 379 379 379 551>
LayerCount: 2
Fore
SplineSet
36 0 m 1
 48 54 l 1
 223 54 l 1
 320 508 l 1
 145 508 l 1
 157 562 l 1
 563 562 l 1
 551 508 l 1
 379 508 l 1
 282 54 l 1
 458 54 l 1
 446 0 l 1
 36 0 l 1
EndSplineSet
EndChar

StartChar: J
Encoding: 74 74 42
Width: 600
Flags: HMW
HStem: -18 54<192 252 192 272> 507 55<235 423 224 617 477 477 477 606>
VStem: 23 56<255 255> 423 54<507 507>
LayerCount: 2
Fore
SplineSet
-16 41 m 1
 23 255 l 1
 79 255 l 1
 64 164 l 2
 40 42 179 36 205 36 c 0
 299 36 343 98 359 179 c 2
 423 507 l 1
 224 507 l 1
 235 562 l 1
 617 562 l 1
 606 507 l 1
 477 507 l 1
 407 151 l 2
 391 69 343 -18 201 -18 c 0
 134 -18 71 3 -16 41 c 1
EndSplineSet
EndChar

StartChar: K
Encoding: 75 75 43
Width: 600
Flags: HMW
HStem: 0 54<-16 76 -5 76 130 201 435 541> 508 54<96 177 85 311 231 231 231 300 414 474 542 542 542 606>
VStem: 76 54<54 54> 474 68<508 508>
LayerCount: 2
Fore
SplineSet
-16 0 m 1
 -5 54 l 1
 76 54 l 1
 177 508 l 1
 85 508 l 1
 96 562 l 1
 311 562 l 1
 300 508 l 1
 231 508 l 1
 175 273 l 1
 474 508 l 1
 403 508 l 1
 414 562 l 1
 617 562 l 1
 606 508 l 1
 542 508 l 1
 305 321 l 1
 314 306 335 272 335 272 c 2
 376 207 414 125 435 54 c 1
 552 54 l 1
 541 0 l 1
 391 0 l 1
 366 88 331 171 288 245 c 2
 262 289 l 1
 162 207 l 1
 130 54 l 1
 212 54 l 1
 201 0 l 1
 -16 0 l 1
EndSplineSet
EndChar

StartChar: L
Encoding: 76 76 44
Width: 600
Flags: HMW
HStem: 0 54<0 119 11 119 175 469> 508 54<113 210 102 406 267 267 267 395>
VStem: 119 56<54 54>
LayerCount: 2
Fore
SplineSet
0 0 m 1
 11 54 l 1
 119 54 l 1
 210 508 l 1
 102 508 l 1
 113 562 l 1
 406 562 l 1
 395 508 l 1
 267 508 l 1
 175 54 l 1
 469 54 l 1
 504 243 l 1
 560 243 l 1
 514 0 l 1
 0 0 l 1
EndSplineSet
EndChar

StartChar: M
Encoding: 77 77 45
Width: 600
Flags: HMW
HStem: 0 54<-40 20 -28 20 76 128 376 436 492 528> 508 54<73 111 63 224 167 167 167 176 516 516 516 527 583 583 583 629>
VStem: 20 56<54 54> 436 56<54 54>
LayerCount: 2
Fore
SplineSet
-40 0 m 1
 -28 54 l 1
 20 54 l 1
 111 508 l 1
 63 508 l 1
 73 562 l 1
 224 562 l 1
 291 218 l 1
 493 562 l 1
 641 562 l 1
 629 508 l 1
 583 508 l 1
 492 54 l 1
 539 54 l 1
 528 0 l 1
 366 0 l 1
 376 54 l 1
 436 54 l 1
 527 508 l 1
 516 508 l 1
 293 129 l 1
 249 129 l 1
 176 508 l 1
 167 508 l 1
 76 54 l 1
 140 54 l 1
 128 0 l 1
 -40 0 l 1
EndSplineSet
EndChar

StartChar: N
Encoding: 78 78 46
Width: 600
Flags: HMW
HStem: -1 55<-45 47 -34 47 103 191> 507 55<67 137 55 224 414 501 557 557 557 634>
LayerCount: 2
Fore
SplineSet
-45 -1 m 1
 -34 54 l 1
 47 54 l 1
 137 507 l 1
 55 507 l 1
 67 562 l 1
 224 562 l 1
 415 75 l 1
 501 507 l 1
 403 507 l 1
 414 562 l 1
 645 562 l 1
 634 507 l 1
 557 507 l 1
 456 -1 l 1
 381 -1 l 1
 189 483 l 1
 103 54 l 1
 202 54 l 1
 191 -1 l 1
 -45 -1 l 1
EndSplineSet
EndChar

StartChar: O
Encoding: 79 79 47
Width: 600
Flags: HMW
HStem: -18 55<201.5 322.5 201.5 335.5> 525 55<260 408>
VStem: 34 55<164.5 269.5 164.5 298> 509 56<281 392.5>
LayerCount: 2
Fore
SplineSet
89 214 m 0
 89 115 148 37 255 37 c 0
 390 37 509 209 509 353 c 0
 509 432 470 525 346 525 c 0
 171 525 89 325 89 214 c 0
34 216 m 0
 34 380 161 580 359 580 c 0
 518 580 565 456 565 357 c 0
 565 169 427 -18 244 -18 c 0
 108 -18 34 83 34 216 c 0
EndSplineSet
EndChar

StartChar: P
Encoding: 80 80 48
Width: 600
Flags: HMW
HStem: 0 54<17 107 28 107 165 311> 211 54<207 331 197 351> 508 54<131 200 120 406 256 256 256 391>
VStem: 107 58<54 54> 523 59<356.5 447.5>
LayerCount: 2
Fore
SplineSet
207 265 m 1
 351 265 l 2
 416 265 523 294 523 419 c 0
 523 476 460 508 391 508 c 2
 256 508 l 1
 207 265 l 1
17 0 m 1
 28 54 l 1
 107 54 l 1
 200 508 l 1
 120 508 l 1
 131 562 l 1
 406 562 l 2
 535 562 582 497 582 426 c 0
 582 279 488 211 331 211 c 2
 197 211 l 1
 165 54 l 1
 322 54 l 1
 311 0 l 1
 17 0 l 1
EndSplineSet
EndChar

StartChar: Q
Encoding: 81 81 49
Width: 600
Flags: HMW
HStem: -138 173<214.5 395.5> -94 129<214.5 218.5> -20 55 525 55<276.5 400>
VStem: 35 60<143 270.5 133.5 287> 506 59<275 419.5>
LayerCount: 2
Fore
SplineSet
95 195 m 0
 95 72 177 35 252 35 c 0
 360 35 506 173 506 377 c 0
 506 462 451 525 349 525 c 0
 204 525 95 346 95 195 c 0
78 -76 m 1
 115 -59 148 -42 181 -15 c 1
 85 14 35 91 35 195 c 0
 35 379 174 580 361 580 c 0
 520 580 565 478 565 369 c 0
 565 161 439 -21 236 -20 c 1
 226 -30 224 -30 194 -45 c 1
 211 -40 228 -41 243 -41 c 0
 270 -41 293 -54 316 -63 c 0
 338 -72 360 -81 382 -81 c 0
 409 -81 437 -67 461 -55 c 1
 477 -102 l 1
 449 -122 413 -138 378 -138 c 0
 351 -138 324 -129 297 -120 c 0
 265 -109 234 -94 203 -94 c 0
 164 -94 125 -100 84 -131 c 1
 78 -76 l 1
EndSplineSet
EndChar

StartChar: R
Encoding: 82 82 50
Width: 600
Flags: HMW
HStem: 0 54<20 112 31 112 167 236 476 568> 231 52 508 54<133 203 122 432 258 258 258 402>
VStem: 112 55<54 54> 524 56<361 455.5>
LayerCount: 2
Fore
SplineSet
213 283 m 1
 315 283 l 2
 388 283 524 288 524 434 c 0
 524 477 477 508 402 508 c 2
 258 508 l 1
 213 283 l 1
20 0 m 1
 31 54 l 1
 112 54 l 1
 203 508 l 1
 122 508 l 1
 133 562 l 1
 432 562 l 2
 530 562 580 500 580 436 c 0
 580 277 469 234 379 231 c 1
 409 183 452 108 476 54 c 1
 579 54 l 1
 568 0 l 1
 436 0 l 1
 411 68 346 182 317 229 c 1
 202 229 l 1
 167 54 l 1
 247 54 l 1
 236 0 l 1
 20 0 l 1
EndSplineSet
EndChar

StartChar: S
Encoding: 83 83 51
Width: 600
Flags: HMW
HStem: -20 58<247 327 244.5 342> 525 55<319.5 399>
VStem: 120 60<360 436 360 445.5> 476 60<108 178>
LayerCount: 2
Fore
SplineSet
13 -12 m 1
 50 171 l 1
 109 171 l 1
 94 102 l 1
 134 60 208 38 281 38 c 0
 373 38 476 74 476 142 c 0
 476 214 392 223 331 234 c 0
 241 248 120 278 120 392 c 0
 120 499 214 580 380 580 c 0
 435 580 486 556 521 529 c 1
 530 569 l 1
 587 569 l 1
 549 382 l 1
 491 382 l 1
 508 462 l 1
 476 497 427 525 371 525 c 0
 268 525 180 478 180 394 c 0
 180 326 274 295 352 287 c 0
 442 277 536 257 536 144 c 0
 536 31 400 -20 284 -20 c 0
 210 -20 135 2 81 40 c 1
 71 -12 l 1
 13 -12 l 1
EndSplineSet
EndChar

StartChar: T
Encoding: 84 84 52
Width: 600
Flags: HMW
HStem: 0 54<58 192 69 192 247 360> 508 54<106 281 106 106 337 337 337 512>
VStem: 192 55<54 54>
LayerCount: 2
Fore
SplineSet
58 0 m 1
 69 54 l 1
 192 54 l 1
 281 508 l 1
 106 508 l 1
 76 355 l 1
 21 355 l 1
 62 562 l 1
 578 562 l 1
 537 355 l 1
 482 355 l 1
 512 508 l 1
 337 508 l 1
 247 54 l 1
 371 54 l 1
 360 0 l 1
 58 0 l 1
EndSplineSet
EndChar

StartChar: U
Encoding: 85 85 53
Width: 600
Flags: HMW
HStem: -18 52<205.5 289 205.5 303.5> 507 55<52 302 63 134 185 185 185 291 397 404 397 490 541 541 541 618>
VStem: 71 53<118 172.5>
LayerCount: 2
Fore
SplineSet
52 507 m 1
 63 562 l 1
 302 562 l 1
 291 507 l 1
 185 507 l 1
 165 391 124 210 124 158 c 0
 124 78 161 34 250 34 c 0
 328 34 407 71 431 193 c 0
 451 298 470 402 490 507 c 1
 456 507 421 507 387 507 c 1
 397 562 l 1
 629 562 l 1
 618 507 l 1
 541 507 l 1
 521 402 502 297 482 192 c 0
 453 39 366 -18 241 -18 c 0
 111 -18 71 50 71 155 c 0
 71 190 81 259 134 507 c 1
 52 507 l 1
EndSplineSet
EndChar

StartChar: V
Encoding: 86 86 54
Width: 600
Flags: HMW
HStem: -13 21G<157 157 157 239> 507 55<2 63 -9 229 126 126 126 217 389 468 534 534 534 598>
LayerCount: 2
Fore
SplineSet
157 -13 m 1
 63 507 l 1
 -9 507 l 1
 2 562 l 1
 229 562 l 1
 217 507 l 1
 126 507 l 1
 207 43 l 1
 468 507 l 1
 378 507 l 1
 389 562 l 1
 609 562 l 1
 598 507 l 1
 534 507 l 1
 239 -13 l 1
 157 -13 l 1
EndSplineSet
EndChar

StartChar: W
Encoding: 87 87 55
Width: 600
Flags: HMW
HStem: -13 21G<17 17 17 81 315 315 315 374> 507 55<24 59 12 225 114 114 114 214 387 478 532 532 532 576>
VStem: 38 58
LayerCount: 2
Fore
SplineSet
17 -13 m 1
 59 507 l 1
 12 507 l 1
 24 562 l 1
 225 562 l 1
 214 507 l 1
 114 507 l 1
 78 87 l 1
 265 453 l 1
 305 453 l 1
 356 89 l 1
 478 507 l 1
 375 507 l 1
 387 562 l 1
 588 562 l 1
 576 507 l 1
 532 507 l 1
 374 -13 l 1
 315 -13 l 1
 264 351 l 1
 81 -13 l 1
 17 -13 l 1
EndSplineSet
EndChar

StartChar: X
Encoding: 88 88 56
Width: 600
Flags: HMW
HStem: 0 54<-26 51 -15 51 115 200 328 414 477 531> 508 54<107 163 95 315 227 227 227 304 433 485 548 548 548 615>
VStem: -26 226<0 0> 317 214<0 0>
LayerCount: 2
Fore
SplineSet
-26 0 m 1
 -15 54 l 1
 51 54 l 1
 280 285 l 1
 163 508 l 1
 95 508 l 1
 107 562 l 1
 315 562 l 1
 304 508 l 1
 227 508 l 1
 322 327 l 1
 485 508 l 1
 422 508 l 1
 433 562 l 1
 626 562 l 1
 615 508 l 1
 548 508 l 1
 345 285 l 1
 477 54 l 1
 542 54 l 1
 531 0 l 1
 317 0 l 1
 328 54 l 1
 414 54 l 1
 306 242 l 1
 115 54 l 1
 211 54 l 1
 200 0 l 1
 -26 0 l 1
EndSplineSet
EndChar

StartChar: Y
Encoding: 89 89 57
Width: 600
Flags: HMW
HStem: 0 54<41 179 53 179 235 349> 508 54<30 89 19 233 150 150 150 222 382 442 502 502 502 570>
LayerCount: 2
Fore
SplineSet
41 0 m 1
 53 54 l 1
 179 54 l 1
 211 228 l 1
 89 508 l 1
 19 508 l 1
 30 562 l 1
 233 562 l 1
 222 508 l 1
 150 508 l 1
 250 281 l 1
 442 508 l 1
 371 508 l 1
 382 562 l 1
 581 562 l 1
 570 508 l 1
 502 508 l 1
 267 228 l 1
 235 54 l 1
 360 54 l 1
 349 0 l 1
 41 0 l 1
EndSplineSet
EndChar

StartChar: Z
Encoding: 90 90 58
Width: 600
Flags: HMW
HStem: 0 54<119 416 119 458> 508 54<213 481 213 213>
VStem: 47 72<53 54> 445 53<203 203>
LayerCount: 2
Fore
SplineSet
38 0 m 1
 47 53 l 1
 481 508 l 1
 213 508 l 1
 187 374 l 1
 136 374 l 1
 173 562 l 1
 562 562 l 1
 553 511 l 1
 119 54 l 1
 416 54 l 1
 445 203 l 1
 498 203 l 1
 458 0 l 1
 38 0 l 1
EndSplineSet
EndChar

StartChar: bracketleft
Encoding: 91 91 59
Width: 600
Flags: HMW
HStem: -108 54<200 322> 568 54<320 453 320 320>
LayerCount: 2
Fore
SplineSet
136 -108 m 1
 278 622 l 1
 464 622 l 1
 453 568 l 1
 320 568 l 1
 200 -54 l 1
 333 -54 l 1
 322 -108 l 1
 136 -108 l 1
EndSplineSet
EndChar

StartChar: backslash
Encoding: 92 92 60
Width: 600
Flags: HMW
HStem: -104 716<177 422> -80 21G 609 20G<224 224>
LayerCount: 2
Fore
SplineSet
375 -121 m 1
 177 612 l 1
 224 629 l 1
 422 -104 l 1
 375 -121 l 1
EndSplineSet
EndChar

StartChar: bracketright
Encoding: 93 93 61
Width: 600
Flags: HMW
HStem: -108 54<147 280 147 322 136 280> 568 54<278 400 267 464>
LayerCount: 2
Fore
SplineSet
147 -54 m 1
 280 -54 l 1
 400 568 l 1
 267 568 l 1
 278 622 l 1
 464 622 l 1
 322 -108 l 1
 136 -108 l 1
 147 -54 l 1
EndSplineSet
EndChar

StartChar: asciicircum
Encoding: 94 94 62
Width: 600
Flags: HMW
HStem: 355 267<341 497>
VStem: 103 403<401 402>
LayerCount: 2
Fore
SplineSet
94 354 m 1
 103 401 l 1
 211 473 290 528 341 622 c 1
 392 622 l 1
 411 523 426 478 506 402 c 1
 497 355 l 1
 428 381 374 437 328 497 c 1
 261 440 175 381 94 354 c 1
EndSplineSet
EndChar

StartChar: underscore
Encoding: 95 95 63
Width: 600
Flags: HMW
HStem: -125 50<5 596 -5 606>
LayerCount: 2
Fore
SplineSet
5 -75 m 1
 606 -75 l 1
 596 -125 l 1
 -5 -125 l 1
 5 -75 l 1
EndSplineSet
EndChar

StartChar: grave
Encoding: 193 96 64
Width: 600
Flags: HMW
HStem: 497 21G<383 383> 652 20G<238 238>
LayerCount: 2
Fore
SplineSet
205 599 m 1
 238 672 l 1
 395 528 l 1
 383 497 l 1
 205 599 l 1
EndSplineSet
EndChar

StartChar: a
Encoding: 97 97 65
Width: 600
Flags: HW
LayerCount: 2
Fore
SplineSet
425 145 m 1
 435 185 l 1
 393 192 351 198 306 198 c 0
 226 198 111 181 111 101 c 0
 111 69 148 40 201 40 c 0
 284 40 361 86 425 145 c 1
396 -4 m 1
 412 74 l 1
 346 21 267 -15 190 -15 c 0
 99 -15 53 38 53 95 c 0
 53 171 127 254 304 254 c 0
 353 254 402 247 446 240 c 1
 452 264 456 311 456 331 c 0
 456 386 402 385 341 385 c 0
 272 385 183 358 148 343 c 1
 144 397 l 1
 208 421 293 441 362 441 c 0
 464 441 513 405 513 345 c 0
 513 329 513 310 461 51 c 1
 546 51 l 1
 535 -4 l 1
 396 -4 l 1
EndSplineSet
EndChar

StartChar: b
Encoding: 98 98 66
Width: 600
Flags: HMW
HStem: -15 55<289.5 380.5 289.5 405.5> -4 56<2 99 13 99 13 143> 392 56<363.5 448.5> 574 55<128 202 117 269>
VStem: 540 58<201 295.5>
LayerCount: 2
Fore
SplineSet
193 229 m 0
 168 104 249 40 330 40 c 0
 431 40 540 140 540 262 c 0
 540 329 496 392 401 392 c 0
 312 392 214 335 193 229 c 0
2 -4 m 1
 13 52 l 1
 99 52 l 1
 202 574 l 1
 117 574 l 1
 128 629 l 1
 269 629 l 1
 218 370 l 1
 240 395 309 448 418 448 c 0
 509 448 598 387 598 272 c 0
 598 117 485 -15 326 -15 c 0
 198 -15 169 60 158 76 c 1
 143 -4 l 1
 2 -4 l 1
EndSplineSet
EndChar

StartChar: c
Encoding: 99 99 67
Width: 600
Flags: HMW
HStem: -15 53<215 295.5> 386 55<265.5 359.5>
VStem: 49 58<134.5 221.5 134.5 227.5> 460 55<256 256>
LayerCount: 2
Fore
SplineSet
477 117 m 1
 488 63 l 1
 419 17 342 -15 249 -15 c 0
 139 -15 49 50 49 163 c 0
 49 292 144 441 343 441 c 0
 401 441 447 424 487 394 c 1
 496 441 l 1
 551 441 l 1
 515 256 l 1
 460 256 l 1
 475 335 l 1
 439 371 388 386 331 386 c 0
 200 386 107 278 107 165 c 0
 107 104 154 38 276 38 c 0
 357 38 447 96 477 117 c 1
EndSplineSet
EndChar

StartChar: d
Encoding: 100 100 68
Width: 600
Flags: HMW
HStem: -15 55<174.5 249.5> -2 55<463 534> 392 55<239.5 336.5 229.5 349> 574 55<381 510 370 577>
VStem: 22 58<149 240.5 149 241>
LayerCount: 2
Fore
SplineSet
80 188 m 0
 80 110 124 40 225 40 c 0
 333 40 442 158 442 279 c 0
 442 336 403 392 295 392 c 0
 184 392 80 293 80 188 c 0
395 -2 m 1
 411 80 l 1
 363 18 286 -15 213 -15 c 0
 85 -15 22 68 22 165 c 0
 22 317 150 447 309 447 c 0
 364 447 433 441 472 379 c 1
 510 574 l 1
 370 574 l 1
 381 629 l 1
 577 629 l 1
 463 53 l 1
 545 53 l 1
 534 -2 l 1
 395 -2 l 1
EndSplineSet
EndChar

StartChar: e
Encoding: 101 101 69
Width: 600
Flags: HMW
HStem: -15 53<202.5 281.5> 195 55<463 463 463 512> 391 50<262.5 390.5>
LayerCount: 2
Fore
SplineSet
106 251 m 1
 463 250 l 1
 468 275 461 391 320 391 c 0
 205 391 126 310 106 251 c 1
89 195 m 1
 54 91 145 38 260 38 c 0
 307 38 390 56 479 99 c 1
 486 47 l 1
 413 11 323 -15 240 -15 c 0
 99 -15 27 53 27 139 c 0
 27 308 165 441 326 441 c 0
 457 441 515 364 518 269 c 0
 519 245 517 220 512 195 c 1
 89 195 l 1
EndSplineSet
EndChar

StartChar: f
Encoding: 102 102 70
Width: 600
Flags: HMW
HStem: 0 55<26 146 38 146 204 414> 380 56<112 211 102 221 112 268 279 489> 574 55<394 443.5>
VStem: 146 58<55 55>
LayerCount: 2
Fore
SplineSet
26 0 m 1
 38 55 l 1
 146 55 l 1
 211 380 l 1
 102 380 l 1
 112 436 l 1
 221 436 l 1
 247 544 l 2
 265 620 355 629 433 629 c 0
 475 629 541 621 574 616 c 1
 555 562 l 1
 519 568 463 574 424 574 c 0
 307 574 311 561 279 436 c 1
 500 436 l 1
 489 380 l 1
 268 380 l 1
 204 55 l 1
 425 55 l 1
 414 0 l 1
 26 0 l 1
EndSplineSet
EndChar

StartChar: g
Encoding: 103 103 71
Width: 600
Flags: HMW
HStem: -157 50<174 263.5 170.5 277> 57 51<193 259.5> 390 51<247.5 347.5 228.5 355>
VStem: 32 56<190 271.5 190 271.5> 398 52<-4 8>
LayerCount: 2
Fore
SplineSet
88 222 m 0
 88 158 148 108 238 108 c 0
 342 108 444 168 444 263 c 0
 444 327 412 390 298 390 c 0
 197 390 88 321 88 222 c 0
23 -79 m 1
 73 -90 137 -107 204 -107 c 0
 323 -107 380 -79 398 8 c 2
 417 115 l 1
 367 70 292 57 227 57 c 0
 86 57 32 137 32 219 c 0
 32 324 149 441 308 441 c 0
 387 441 443 400 469 366 c 1
 484 429 l 1
 598 429 l 1
 588 378 l 1
 528 378 l 1
 450 -4 l 2
 427 -105 339 -157 215 -157 c 0
 133 -157 52 -140 2 -129 c 1
 23 -79 l 1
EndSplineSet
EndChar

StartChar: h
Encoding: 104 104 72
Width: 600
Flags: HMW
HStem: 0 55<20 114 31 114 170 242 360 444 498 568> 365 55 574 55<140 216 129 281>
LayerCount: 2
Fore
SplineSet
20 0 m 1
 31 55 l 1
 114 55 l 1
 216 574 l 1
 129 574 l 1
 140 629 l 1
 281 629 l 1
 234 376 l 1
 294 421 369 458 439 458 c 0
 557 458 563 383 551 320 c 2
 498 55 l 1
 579 55 l 1
 568 0 l 1
 349 0 l 1
 360 55 l 1
 444 55 l 1
 493 298 l 2
 503 353 498 403 414 403 c 0
 349 403 278 359 222 316 c 1
 170 55 l 1
 253 55 l 1
 242 0 l 1
 20 0 l 1
EndSplineSet
EndChar

StartChar: i
Encoding: 105 105 73
Width: 600
Flags: HMW
HStem: 0 55<70 260 81 260 316 479> 381 55<190 324 179 389> 534 123<338 433 362 408>
LayerCount: 2
Fore
SplineSet
70 0 m 1
 81 55 l 1
 260 55 l 1
 324 381 l 1
 179 381 l 1
 190 436 l 1
 389 436 l 1
 316 55 l 1
 490 55 l 1
 479 0 l 1
 70 0 l 1
338 534 m 1
 362 657 l 1
 433 657 l 1
 408 534 l 1
 338 534 l 1
EndSplineSet
EndChar

StartChar: j
Encoding: 106 106 74
Width: 600
Flags: HMW
HStem: -157 54<183 235.5 183 254.5> 393 52<190 452 179 524> 539 118<444 549 471 523>
LayerCount: 2
Fore
SplineSet
72 -91 m 1
 107 -97 154 -103 212 -103 c 0
 259 -103 328 -91 370 26 c 1
 452 393 l 1
 179 393 l 1
 190 445 l 1
 524 445 l 1
 429 12 l 1
 393 -114 308 -157 201 -157 c 0
 153 -157 102 -150 51 -141 c 1
 72 -91 l 1
444 539 m 1
 471 657 l 1
 549 657 l 1
 523 539 l 1
 444 539 l 1
EndSplineSet
EndChar

StartChar: k
Encoding: 107 107 75
Width: 600
Flags: HMW
HStem: 0 55<12 108 23 108 23 152 337 393 456 540> 380 55<367 404 358 587 479 479 479 577> 574 55<134 209 123 275>
LayerCount: 2
Fore
SplineSet
12 0 m 1
 23 55 l 1
 108 55 l 1
 209 574 l 1
 123 574 l 1
 134 629 l 1
 275 629 l 1
 201 253 l 1
 404 380 l 1
 358 380 l 1
 367 435 l 1
 587 435 l 1
 577 380 l 1
 479 380 l 1
 300 268 l 1
 360 200 l 2
 396 160 426 102 456 55 c 1
 552 55 l 1
 540 0 l 1
 326 0 l 1
 337 55 l 1
 393 55 l 1
 356 117 290 207 256 240 c 1
 190 198 l 1
 152 0 l 1
 12 0 l 1
EndSplineSet
EndChar

StartChar: l
Encoding: 108 108 76
Width: 600
Flags: HMW
HStem: 0 55<90 280 101 280 335 499> 574 55<229 378 218 444>
LayerCount: 2
Fore
SplineSet
90 0 m 1
 101 55 l 1
 280 55 l 1
 378 574 l 1
 218 574 l 1
 229 629 l 1
 444 629 l 1
 335 55 l 1
 510 55 l 1
 499 0 l 1
 90 0 l 1
EndSplineSet
EndChar

StartChar: m
Encoding: 109 109 77
Width: 600
Flags: HMW
HStem: 0 54<77 131 307 362 534 579> 386 55<246 267.5> 408 20G<41 156 156 156>
LayerCount: 2
Fore
SplineSet
6 0 m 1
 87 374 l 1
 31 374 l 1
 41 428 l 1
 156 428 l 1
 148 384 l 1
 183 407 222 441 270 441 c 0
 324 441 353 408 361 371 c 1
 398 407 447 441 501 441 c 0
 564 441 594 404 594 357 c 0
 594 343 592 327 534 54 c 1
 590 54 l 1
 579 0 l 1
 464 0 l 1
 523 282 l 2
 527 301 532 324 532 343 c 0
 532 368 520 388 480 388 c 0
 427 388 364 324 362 313 c 2
 307 54 l 1
 373 54 l 1
 362 0 l 1
 236 0 l 1
 299 301 l 2
 300 305 303 317 303 331 c 0
 303 356 292 386 243 386 c 0
 195 386 162 352 135 324 c 1
 77 54 l 1
 143 54 l 1
 131 0 l 1
 6 0 l 1
EndSplineSet
EndChar

StartChar: n
Encoding: 110 110 78
Width: 600
Flags: HMW
HStem: 0 54<20 115 31 115 169 242 359 442 496 568> 362 55 387 54<402.5 461>
VStem: 115 54<54 54> 442 54<54 54>
LayerCount: 2
Fore
SplineSet
20 0 m 1
 31 54 l 1
 115 54 l 1
 177 373 l 1
 94 373 l 1
 105 428 l 1
 243 428 l 1
 229 356 l 1
 289 401 365 441 435 441 c 0
 510 441 551 411 551 359 c 0
 551 343 550 326 546 307 c 2
 496 54 l 1
 579 54 l 1
 568 0 l 1
 348 0 l 1
 359 54 l 1
 442 54 l 1
 491 306 l 2
 493 317 494 327 494 336 c 0
 494 369 482 387 440 387 c 0
 365 387 279 348 217 296 c 1
 169 54 l 1
 253 54 l 1
 242 0 l 1
 20 0 l 1
EndSplineSet
EndChar

StartChar: o
Encoding: 111 111 79
Width: 600
Flags: HMW
HStem: -15 54<216.5 331 216.5 344.5> 387 54<272 395.5>
VStem: 57 55<139.5 228.5 139.5 249> 487 56<195.5 283>
LayerCount: 2
Fore
SplineSet
112 174 m 0
 112 105 162 39 271 39 c 0
 391 39 487 137 487 254 c 0
 487 312 456 387 335 387 c 0
 207 387 112 283 112 174 c 0
57 167 m 0
 57 331 198 441 346 441 c 0
 497 441 543 347 543 264 c 0
 543 112 427 -15 262 -15 c 0
 131 -15 57 59 57 167 c 0
EndSplineSet
EndChar

StartChar: p
Encoding: 112 112 80
Width: 600
Flags: HMW
HStem: -157 51<-33 52 106 251 -44 52> 12 52<276 365 276 381> 369 52<80 154 70 219> 388 53<353 435>
VStem: 508 57<211 299>
LayerCount: 2
Fore
SplineSet
171 180 m 0
 171 103 234 64 318 64 c 0
 412 64 508 150 508 272 c 0
 508 326 487 388 383 388 c 0
 261 388 171 278 171 180 c 0
-33 -106 m 1
 52 -106 l 1
 154 369 l 1
 70 369 l 1
 80 421 l 1
 219 421 l 1
 204 354 l 1
 250 398 309 441 397 441 c 0
 503 441 565 369 565 277 c 0
 565 130 451 12 311 12 c 0
 219 12 169 41 145 79 c 1
 106 -106 l 1
 262 -106 l 1
 251 -157 l 1
 -44 -157 l 1
 -33 -106 l 1
EndSplineSet
EndChar

StartChar: q
Encoding: 113 113 81
Width: 600
Flags: HMW
HStem: -157 52<215 373 428 503 204 373> 14 51<191.5 248> 378 51<533 618 533 533> 389 52<238.5 347>
VStem: 41 57<153.5 230 153.5 255>
LayerCount: 2
Fore
SplineSet
98 194 m 0
 98 113 154 65 229 65 c 0
 318 65 444 128 444 247 c 0
 444 323 397 389 297 389 c 0
 147 389 98 266 98 194 c 0
215 -105 m 1
 373 -105 l 1
 411 81 l 1
 351 27 280 14 216 14 c 0
 106 14 41 83 41 183 c 0
 41 327 171 441 306 441 c 0
 391 441 447 395 469 356 c 1
 488 429 l 1
 628 429 l 1
 618 378 l 1
 533 378 l 1
 428 -105 l 1
 514 -105 l 1
 503 -157 l 1
 204 -157 l 1
 215 -105 l 1
EndSplineSet
EndChar

StartChar: r
Encoding: 114 114 82
Width: 600
Flags: HMW
HStem: 0 54<20 158 31 158 215 382> 388 54
VStem: 158 57<54 54>
LayerCount: 2
Fore
SplineSet
20 0 m 1
 31 54 l 1
 158 54 l 1
 223 374 l 1
 96 374 l 1
 106 428 l 1
 290 428 l 1
 270 323 l 1
 346 378 423 441 520 441 c 0
 578 441 596 404 595 353 c 1
 538 348 l 1
 537 382 516 388 491 388 c 0
 437 388 388 365 256 262 c 1
 215 54 l 1
 393 54 l 1
 382 0 l 1
 20 0 l 1
EndSplineSet
EndChar

StartChar: s
Encoding: 115 115 83
Width: 600
Flags: HMW
HStem: -15 54<252.5 305.5 252.5 349> 387 54<302 356.5>
VStem: 118 63<288 352.5 288 356.5> 459 58<84 150>
LayerCount: 2
Fore
SplineSet
47 -15 m 1
 81 155 l 1
 138 155 l 1
 128 107 l 1
 161 68 220 39 285 39 c 0
 326 39 459 35 459 126 c 0
 459 174 380 182 334 186 c 0
 259 192 118 235 118 308 c 0
 118 405 203 441 336 441 c 0
 394 441 445 419 486 393 c 1
 497 441 l 1
 553 441 l 1
 521 285 l 1
 465 285 l 1
 475 334 l 1
 437 361 385 387 328 387 c 0
 276 387 181 391 181 314 c 0
 181 262 349 245 404 236 c 0
 460 227 517 201 517 136 c 0
 517 32 411 -15 287 -15 c 0
 205 -15 154 16 115 41 c 1
 104 -15 l 1
 47 -15 l 1
EndSplineSet
EndChar

StartChar: t
Encoding: 116 116 84
Width: 600
Flags: HMW
HStem: -15 55<265 310.5> 376 55<113 196 123 186 123 242 252 497> 541 20G<222 278 278 278>
VStem: 131 59<77 83>
LayerCount: 2
Fore
SplineSet
113 376 m 1
 123 431 l 1
 196 431 l 1
 222 561 l 1
 278 561 l 1
 252 431 l 1
 507 431 l 1
 497 376 l 1
 242 376 l 1
 190 107 l 1
 190 47 236 40 294 40 c 0
 364 40 448 75 506 95 c 1
 502 41 l 1
 431 14 349 -15 272 -15 c 0
 226 -15 132 -1 131 77 c 0
 131 89 131 101 186 376 c 1
 113 376 l 1
EndSplineSet
EndChar

StartChar: u
Encoding: 117 117 85
Width: 600
Flags: HMW
HStem: -15 53<219.5 244.5> -2 54<454 524> 372 54<64 209 74 146 391 463>
LayerCount: 2
Fore
SplineSet
64 372 m 1
 74 426 l 1
 209 426 l 1
 190 322 172 218 153 114 c 0
 152 109 152 104 152 99 c 0
 152 60 193 38 246 38 c 0
 308 38 370 92 418 142 c 1
 463 372 l 1
 382 372 l 1
 391 426 l 1
 526 426 l 1
 454 52 l 1
 535 52 l 1
 524 -2 l 1
 390 -2 l 1
 405 73 l 1
 317 2 264 -15 225 -15 c 0
 149 -15 94 23 94 93 c 0
 94 103 95 114 146 372 c 1
 64 372 l 1
EndSplineSet
EndChar

StartChar: v
Encoding: 118 118 86
Width: 600
Flags: HMW
HStem: -10 21G<190 190 190 255> 371 55<14 91 4 236 150 150 150 226 381 445 504 504 504 585>
LayerCount: 2
Fore
SplineSet
190 -10 m 1
 91 371 l 1
 4 371 l 1
 14 426 l 1
 236 426 l 1
 226 371 l 1
 150 371 l 1
 233 48 l 1
 445 371 l 1
 371 371 l 1
 381 426 l 1
 595 426 l 1
 585 371 l 1
 504 371 l 1
 255 -10 l 1
 190 -10 l 1
EndSplineSet
EndChar

StartChar: w
Encoding: 119 119 87
Width: 600
Flags: HMW
HStem: -10 21G<81 81 81 145 301 301 301 362> 371 55<24 47 14 186 104 104 104 177 427 488 538 538 538 575>
VStem: 64 53
LayerCount: 2
Fore
SplineSet
81 -10 m 1
 47 371 l 1
 14 371 l 1
 24 426 l 1
 186 426 l 1
 177 371 l 1
 104 371 l 1
 130 68 l 1
 265 352 l 1
 313 352 l 1
 345 66 l 1
 488 371 l 1
 416 371 l 1
 427 426 l 1
 585 426 l 1
 575 371 l 1
 538 371 l 1
 362 -10 l 1
 301 -10 l 1
 270 253 l 1
 145 -10 l 1
 81 -10 l 1
EndSplineSet
EndChar

StartChar: x
Encoding: 120 120 88
Width: 600
Flags: HMW
HStem: 0 54<-17 71 -6 71 140 195 354 417 488 556> 373 53<88 158 78 290 228 228 228 280 425 458 527 527 527 608>
LayerCount: 2
Fore
SplineSet
-17 0 m 1
 -6 54 l 1
 71 54 l 1
 279 219 l 1
 158 373 l 1
 78 373 l 1
 88 426 l 1
 290 426 l 1
 280 373 l 1
 228 373 l 1
 319 253 l 1
 458 373 l 1
 415 373 l 1
 425 426 l 1
 618 426 l 1
 608 373 l 1
 527 373 l 1
 347 218 l 1
 488 54 l 1
 568 54 l 1
 556 0 l 1
 343 0 l 1
 354 54 l 1
 417 54 l 1
 307 184 l 1
 140 54 l 1
 207 54 l 1
 195 0 l 1
 -17 0 l 1
EndSplineSet
EndChar

StartChar: y
Encoding: 121 121 89
Width: 600
Flags: HMW
HStem: -157 51<-31 85 149 227 -43 85> 375 51<39 100 28 242 164 164 164 231 453 502 566 566 566 633>
LayerCount: 2
Fore
SplineSet
-31 -106 m 1
 85 -106 l 1
 227 57 l 1
 100 375 l 1
 28 375 l 1
 39 426 l 1
 242 426 l 1
 231 375 l 1
 164 375 l 1
 270 106 l 1
 502 375 l 1
 442 375 l 1
 453 426 l 1
 644 426 l 1
 633 375 l 1
 566 375 l 1
 149 -106 l 1
 238 -106 l 1
 227 -157 l 1
 -43 -157 l 1
 -31 -106 l 1
EndSplineSet
EndChar

StartChar: z
Encoding: 122 122 90
Width: 600
Flags: HMW
HStem: 0 54<142 417 142 462> 372 54<197 457 197 197>
LayerCount: 2
Fore
SplineSet
53 0 m 1
 63 51 l 1
 457 372 l 1
 197 372 l 1
 174 294 l 1
 120 294 l 1
 152 426 l 1
 547 426 l 1
 537 376 l 1
 142 54 l 1
 417 54 l 1
 438 134 l 1
 493 134 l 1
 462 0 l 1
 53 0 l 1
EndSplineSet
EndChar

StartChar: braceleft
Encoding: 123 123 91
Width: 600
Flags: HMW
HStem: -220 53<276 286> 694 53<427 469>
VStem: 191 47
LayerCount: 2
Fore
SplineSet
118 237 m 1
 129 290 l 1
 212 323 237 352 265 480 c 0
 315 701 338 747 481 747 c 1
 469 694 l 1
 385 694 353 677 316 474 c 0
 309 428 287 320 196 265 c 1
 225 243 238 202 238 160 c 0
 238 118 234 72 228 47 c 0
 207 -36 200 -84 200 -114 c 0
 200 -148 236 -159 286 -167 c 1
 276 -220 l 1
 187 -204 149 -188 149 -125 c 0
 149 -87 156 -33 173 47 c 0
 182 85 187 115 187 138 c 0
 188 194 169 213 118 237 c 1
EndSplineSet
EndChar

StartChar: bar
Encoding: 124 124 92
Width: 600
Flags: HMW
HStem: -250 21G<168 168 168 219> 730 20G<380 431 431 431>
VStem: 168 51<-250 -250>
LayerCount: 2
Fore
SplineSet
168 -250 m 1
 380 750 l 1
 431 750 l 1
 219 -250 l 1
 168 -250 l 1
EndSplineSet
EndChar

StartChar: braceright
Encoding: 125 125 93
Width: 600
Flags: HMW
HStem: -221 53<130 172 130 189.5> 693 53<313 323>
VStem: 283 51
LayerCount: 2
Fore
SplineSet
481 289 m 1
 470 236 l 1
 387 203 362 174 334 46 c 0
 284 -175 261 -221 118 -221 c 1
 130 -168 l 1
 214 -168 246 -151 283 52 c 0
 290 98 312 206 403 261 c 1
 374 283 361 324 361 366 c 0
 361 408 369 454 374 479 c 0
 389 560 399 610 399 640 c 0
 399 674 363 685 313 693 c 1
 323 746 l 1
 412 730 450 714 450 651 c 0
 450 613 442 559 425 479 c 0
 416 441 412 411 412 388 c 0
 411 332 430 313 481 289 c 1
EndSplineSet
EndChar

StartChar: asciitilde
Encoding: 126 126 94
Width: 600
Flags: HMW
HStem: 197 61<372.5 405.5 372.5 414> 264 56<184 221.5>
LayerCount: 2
Fore
SplineSet
101 197 m 1
 58 239 l 1
 99 275 140 320 204 320 c 0
 260 320 289 301 316 284 c 0
 338 270 358 258 387 258 c 0
 424 258 484 300 503 320 c 1
 542 277 l 1
 499 233 447 197 381 197 c 0
 346 197 320 212 295 228 c 0
 267 245 240 264 203 264 c 0
 165 264 129 228 101 197 c 1
EndSplineSet
EndChar

StartChar: exclamdown
Encoding: 161 161 95
Width: 600
Flags: HMW
HStem: -157 21G<190 190 190 272> 310 120<326 347.5>
VStem: 267 143<363 376>
LayerCount: 2
Fore
SplineSet
190 -157 m 1
 288 237 l 1
 334 237 l 1
 272 -157 l 1
 190 -157 l 1
267 356 m 0
 267 396 302 430 350 430 c 0
 387 430 410 407 410 381 c 0
 410 345 371 310 324 310 c 0
 295 310 267 330 267 356 c 0
EndSplineSet
EndChar

StartChar: cent
Encoding: 162 162 96
Width: 600
Flags: HMW
HStem: 94 55<221 306 276 276> 418 55<298 298 298 346.5>
VStem: 81 57<228 295 228 311> 325 55<614 614>
LayerCount: 2
Fore
SplineSet
194 -49 m 1
 221 94 l 1
 149 101 81 152 81 245 c 0
 81 377 211 472 298 473 c 1
 325 614 l 1
 380 614 l 1
 353 474 l 1
 390 470 423 456 454 432 c 1
 464 483 l 1
 518 483 l 1
 486 321 l 1
 431 321 l 1
 441 371 l 1
 423 402 369 418 324 418 c 0
 220 418 138 338 138 252 c 0
 138 204 175 149 273 149 c 0
 339 149 403 174 462 206 c 1
 468 160 l 1
 408 126 348 98 276 94 c 1
 249 -49 l 1
 194 -49 l 1
EndSplineSet
EndChar

StartChar: sterling
Encoding: 163 163 97
Width: 600
Flags: HMW
HStem: -21 58<335.5 365 335.5 367> 275 57<69 164 69 171 58 164 223 223 223 441> 553 58<343.5 400.5>
VStem: 159 54<422 460 408 472> 171 52<223 275>
LayerCount: 2
Fore
SplineSet
51 31 m 1
 132 95 171 171 171 275 c 1
 58 275 l 1
 69 332 l 1
 164 332 l 1
 162 361 158 391 159 422 c 0
 159 522 263 611 383 611 c 0
 500 611 530 554 548 498 c 1
 493 481 l 1
 477 531 427 553 374 553 c 0
 313 553 213 512 213 408 c 0
 212 382 215 356 217 332 c 1
 452 332 l 1
 441 275 l 1
 223 275 l 1
 222.009763758 189.839683173 221.019527516 129.193561729 128.755874345 45.482940903 c 1
 161.043743363 59.0933770864 194.912534283 67.9999991215 227 68 c 0
 254 68 272 59 292 50 c 0
 308 43 324 37 347 37 c 0
 383 37 439 58 459 70 c 1
 473 25 l 1
 435 -3 389 -21 345 -21 c 0
 320 -21 300 -15 282 -8 c 0
 261 0 243 9 221 9 c 0
 205 9 120 1 67 -21 c 1
 51 31 l 1
EndSplineSet
EndChar

StartChar: currency
Encoding: 168 164 98
Width: 600
Flags: HMW
HStem: 58 21G<63 63 454 454> 76 46<241.5 283> 442 46<317 366.5 317 372> 486 20G<144 144 536 536>
VStem: 86 48<245 276.5> 465 49<293 320 293 351.5>
LayerCount: 2
Fore
SplineSet
134 244 m 0
 134 173 192 122 268 122 c 0
 359 122 465 206 465 318 c 0
 465 385 412 442 332 442 c 0
 221 442 134 339 134 244 c 0
33 96 m 1
 109 155 l 1
 92 181 85 210 86 245 c 0
 86 308 108 354 160 412 c 1
 107 475 l 1
 144 506 l 1
 196 443 l 1
 238 472 292 488 342 488 c 0
 391 488 432 477 463 447 c 1
 536 506 l 1
 567 469 l 1
 493 407 l 1
 510 381 515 356 514 320 c 0
 514 266 489 191 438 151 c 1
 489 87 l 1
 454 58 l 1
 403 120 l 1
 359 92 308 76 258 76 c 0
 225 76 188 77 142 116 c 1
 63 58 l 1
 33 96 l 1
EndSplineSet
EndChar

StartChar: yen
Encoding: 165 165 99
Width: 600
Flags: HMW
HStem: 0 54<56 177 67 177 234 333> 132 54<73 193 61 204 73 249 260 381> 254 55<97 216 97 217 86 216 292 406> 508 54<24 94 13 233 154 154 154 222 378 436 495 495 495 575>
LayerCount: 2
Fore
SplineSet
56 0 m 1
 67 54 l 1
 177 54 l 1
 193 132 l 1
 61 132 l 1
 73 186 l 1
 204 186 l 1
 217 254 l 1
 86 254 l 1
 97 309 l 1
 216 309 l 1
 94 508 l 1
 13 508 l 1
 24 562 l 1
 233 562 l 1
 222 508 l 1
 154 508 l 1
 259 336 l 1
 436 508 l 1
 367 508 l 1
 378 562 l 1
 586 562 l 1
 575 508 l 1
 495 508 l 1
 292 309 l 1
 418 309 l 1
 406 254 l 1
 273 254 l 1
 260 186 l 1
 393 186 l 1
 381 132 l 1
 249 132 l 1
 234 54 l 1
 344 54 l 1
 333 0 l 1
 56 0 l 1
EndSplineSet
EndChar

StartChar: brokenbar
Encoding: 256 166 100
Width: 600
Flags: HMW
VStem: 184 49<-175 -175>
LayerCount: 2
Fore
SplineSet
184 -175 m 1
 268 218 l 1
 318 218 l 1
 233 -175 l 1
 184 -175 l 1
281 283 m 1
 365 675 l 1
 415 675 l 1
 331 283 l 1
 281 283 l 1
EndSplineSet
EndChar

StartChar: section
Encoding: 167 167 101
Width: 600
Flags: HMW
HStem: -78 55<124 300> 96 41 525 55<294.5 543 355 476>
VStem: 88 57<78 78> 366 57<0 17>
LayerCount: 2
Fore
SplineSet
343 137 m 1
 413 137 435 188 435 203 c 0
 435 226 424 238 409 252 c 2
 267 369 l 1
 228 368 185 336 185 300 c 0
 185 285 191 270 206 256 c 2
 343 137 l 1
57 -78 m 1
 88 78 l 1
 145 78 l 1
 124 -23 l 1
 322 -23 l 2
 352 -23 366 -9 366 9 c 0
 366 25 357 45 343 57 c 2
 157 222 l 2
 136 240 118 273 118 297 c 0
 118 354 183 407 232 407 c 1
 200 440 185 461 185 488 c 0
 185 574 288 580 355 580 c 2
 543 580 l 1
 511 424 l 1
 454 424 l 1
 476 525 l 1
 305 525 l 2
 284 525 240 525 239 489 c 0
 239 478 243 470 452 286 c 0
 474 268 491 244 491 215 c 0
 491 178 463 95 375 96 c 1
 410 62 423 31 423 4 c 0
 423 -45 366 -78 300 -78 c 2
 57 -78 l 1
EndSplineSet
EndChar

StartChar: dieresis
Encoding: 200 168 102
Width: 600
Flags: HMW
HStem: 492 103<146 278 175 249 175 325 354 425>
LayerCount: 2
Fore
SplineSet
146 492 m 1
 175 595 l 1
 278 595 l 1
 249 492 l 1
 146 492 l 1
325 492 m 1
 354 595 l 1
 454 595 l 1
 425 492 l 1
 325 492 l 1
EndSplineSet
EndChar

StartChar: copyright
Encoding: 257 169 103
Width: 600
Flags: HMW
HStem: -18 46<191 328.5 191 340.5> 119 45<261 306> 415 45<306 357.5> 536 44<274.5 416.5>
VStem: -7 46<169 304.5 169 314.5> 147 47<232.5 303 232.5 306.5> 561 46<256.5 396>
LayerCount: 2
Fore
SplineSet
399 213 m 1
 428 175 l 1
 389 143 331 119 281 119 c 0
 210 119 147 171 147 253 c 0
 147 360 238 460 353 460 c 0
 399 460 428 447 465 415 c 1
 431 380 l 1
 411 400 373 415 342 415 c 0
 270 415 194 347 194 259 c 0
 194 206 232 164 290 164 c 0
 325 164 365 181 399 213 c 1
39 227 m 0
 39 111 132 28 250 28 c 0
 407 28 561 175 561 338 c 0
 561 454 479 536 354 536 c 0
 179 536 39 382 39 227 c 0
-7 210 m 0
 -7 419 188 580 361 580 c 0
 500 580 607 484 607 347 c 0
 607 146 439 -18 242 -18 c 0
 99 -18 -7 78 -7 210 c 0
EndSplineSet
EndChar

StartChar: ordfeminine
Encoding: 227 170 104
Width: 600
Flags: HMW
HStem: 249 60<227 248.5> 388 58<250 297.5> 525 55<301 333.5>
LayerCount: 2
Fore
SplineSet
359 380 m 1
 359 380 318 388 277 388 c 0
 223 388 195 370 195 338 c 0
 195 318 214 309 240 309 c 0
 281 309 326 336 359 380 c 1
343 257 m 1
 351 310 l 1
 316 277 270 249 227 249 c 0
 177 249 148 287 148 328 c 0
 148 374 177 446 293 446 c 0
 319 446 345 442 367 437 c 1
 371 453 373 465 373 476 c 0
 373 518 350 525 317 525 c 0
 276 525 222 507 195 489 c 1
 192 548 l 1
 222 563 277 580 325 580 c 0
 376 580 423 561 423 500 c 0
 423 490 421 476 419 461 c 2
 398 316 l 1
 451 316 l 1
 442 257 l 1
 343 257 l 1
EndSplineSet
EndChar

StartChar: guillemotleft
Encoding: 171 171 105
Width: 600
Flags: HMW
HStem: 58 21G 426 20G<314 314 496 496>
LayerCount: 2
Fore
SplineSet
75 255 m 1
 314 446 l 1
 345 399 l 1
 155 255 l 1
 283 119 l 1
 245 70 l 1
 75 255 l 1
242 255 m 1
 496 446 l 1
 525 399 l 1
 328 255 l 1
 457 117 l 1
 425 70 l 1
 242 255 l 1
EndSplineSet
EndChar

StartChar: logicalnot
Encoding: 258 172 106
Width: 600
Flags: HMW
HStem: 108 21G<418 473 418 418> 307 62<82 518 92 453>
LayerCount: 2
Fore
SplineSet
82 307 m 1
 92 369 l 1
 518 369 l 1
 473 108 l 1
 418 108 l 1
 453 307 l 1
 82 307 l 1
EndSplineSet
EndChar

StartChar: registered
Encoding: 259 174 107
Width: 600
Flags: HMW
HStem: -18 46<190 325.5 190 332> 143 163<172 307 172 307 323 323 323 326 250 382> 399 48<270 325 270 270> 536 44<278 415>
VStem: -7 48<172.5 300.5 172.5 327> 371 50<349.5 373> 560 47<258 392>
LayerCount: 2
Fore
SplineSet
250 306 m 1
 307 306 l 2
 345 306 371 315 371 365 c 0
 371 381 354 399 325 399 c 2
 270 399 l 1
 250 306 l 1
172 143 m 1
 232 447 l 1
 336 447 l 2
 381 447 421 419 421 374 c 0
 421 325 404 278 352 260 c 1
 382 143 l 1
 323 143 l 1
 293 249 l 1
 241 249 l 1
 219 143 l 1
 172 143 l 1
41 232 m 0
 41 113 130 28 250 28 c 0
 401 28 560 180 560 336 c 0
 560 448 476 536 354 536 c 0
 183 536 41 369 41 232 c 0
-7 224 m 0
 -7 430 195 580 361 580 c 0
 501 580 607 482 607 344 c 0
 607 143 422 -18 242 -18 c 0
 95 -18 -7 86 -7 224 c 0
EndSplineSet
EndChar

StartChar: macron
Encoding: 197 175 108
Width: 600
Flags: HMW
HStem: 525 40<116 484 124 476>
LayerCount: 2
Fore
SplineSet
116 525 m 1
 124 565 l 1
 484 565 l 1
 476 525 l 1
 116 525 l 1
EndSplineSet
EndChar

StartChar: degree
Encoding: 260 176 109
Width: 600
Flags: HMW
HStem: 266 62<247 313 247 319.5> 560 62<280.5 359.5>
VStem: 119 63<395 445 395 461> 418 63<448 496>
LayerCount: 2
Fore
SplineSet
182 419 m 0
 182 371 217 328 277 328 c 0
 349 328 418 418 418 478 c 0
 418 514 394 560 325 560 c 0
 236 560 182 471 182 419 c 0
119 404 m 0
 119 518 219 622 338 622 c 0
 437 622 481 557 481 494 c 0
 481 369 374 266 265 266 c 0
 178 266 119 328 119 404 c 0
EndSplineSet
EndChar

StartChar: plusminus
Encoding: 261 177 110
Width: 600
Flags: HMW
HStem: 44 53<51 491 62 480> 326 53<120 296 109 307 120 351 362 538> 538 20G<343 398 398 398>
VStem: 259 55<146 146>
LayerCount: 2
Fore
SplineSet
51 44 m 1
 62 97 l 1
 491 97 l 1
 480 44 l 1
 51 44 l 1
259 146 m 1
 296 326 l 1
 109 326 l 1
 120 379 l 1
 307 379 l 1
 343 558 l 1
 398 558 l 1
 362 379 l 1
 549 379 l 1
 538 326 l 1
 351 326 l 1
 314 146 l 1
 259 146 l 1
EndSplineSet
EndChar

StartChar: twosuperior
Encoding: 262 178 111
Width: 600
Flags: HMW
HStem: 249 56<242 400> 568 54<328 355.5>
VStem: 395 57<496.5 533>
LayerCount: 2
Fore
SplineSet
147 249 m 1
 157 301 l 1
 319 410 l 2
 354 433 395 473 395 520 c 0
 395 546 373 568 338 568 c 0
 307 568 260 530 261 491 c 1
 208 491 l 1
 217 548 l 1
 241 599 306 622 350 622 c 0
 417 622 452 583 452 537 c 0
 452 437 373 389 242 305 c 1
 411 305 l 1
 400 249 l 1
 147 249 l 1
EndSplineSet
EndChar

StartChar: threesuperior
Encoding: 263 179 112
Width: 600
Flags: HMW
HStem: 240 56<265.5 314> 402 55<274 306 274 316 262 306> 567 55<329.5 345.5>
VStem: 374 58<346.5 377.5> 387 57<519.5 540>
LayerCount: 2
Fore
SplineSet
156 271 m 1
 183 328 l 1
 211 310 247 296 284 296 c 0
 348 296 374 330 374 363 c 0
 374 392 346 402 316 402 c 0
 296 402 276 402 262 402 c 1
 266 420 270 439 274 457 c 1
 338 457 387 482 387 527 c 0
 387 553 359 567 332 567 c 0
 298 567 265 546 233 528 c 1
 222 580 l 1
 261 602 308 622 351 622 c 0
 406 622 444 589 444 540 c 0
 444 499 427 460 392 438 c 1
 414 426 432 411 432 376 c 0
 432 293 352 240 276 240 c 0
 233 240 185 256 156 271 c 1
EndSplineSet
EndChar

StartChar: acute
Encoding: 194 180 113
Width: 600
Flags: HMW
HStem: 497 21G<174 174> 652 20G<416 416>
LayerCount: 2
Fore
SplineSet
174 497 m 1
 168 528 l 1
 416 672 l 1
 432 598 l 1
 174 497 l 1
EndSplineSet
EndChar

StartChar: mu
Encoding: 264 181 114
Width: 600
Flags: HW
LayerCount: 2
Fore
SplineSet
142 33 m 1
 105 -157 l 1
 50 -157 l 1
 154 373 l 1
 72 373 l 1
 82 426 l 1
 219 426 l 1
 164 150 l 2
 153 91 186 45 250 45 c 0
 375 45 433 155 449 241 c 2
 476 373 l 1
 394 373 l 1
 404 426 l 1
 540 426 l 1
 468 59 l 1
 550 59 l 1
 539 5 l 1
 403 5 l 1
 419 87 l 1
 370 24 286 -8 235 -8 c 0
 187 -8 157 11 142 33 c 1
EndSplineSet
EndChar

StartChar: paragraph
Encoding: 182 182 115
Width: 600
Flags: HMW
HStem: 533 29<385 464 385 385 507 556 507 507>
VStem: 148 47<-78 -78> 274 43<-78 -78>
LayerCount: 2
Fore
SplineSet
148 -78 m 1
 242 225 l 1
 81 225 35 302 35 358 c 0
 35 499 186 562 346 562 c 2
 565 562 l 1
 556 533 l 1
 507 533 l 1
 317 -78 l 1
 274 -78 l 1
 464 533 l 1
 385 533 l 1
 195 -78 l 1
 148 -78 l 1
EndSplineSet
EndChar

StartChar: periodcentered
Encoding: 180 183 116
Width: 600
Flags: HMW
HStem: 189 138<289.5 310>
VStem: 220 159<248 266>
LayerCount: 2
Fore
SplineSet
220 243 m 0
 220 289 264 327 315 327 c 0
 355 327 379 301 379 271 c 0
 379 225 332 189 288 189 c 0
 247 189 220 214 220 243 c 0
EndSplineSet
EndChar

StartChar: cedilla
Encoding: 203 184 117
Width: 600
Flags: HMW
HStem: -110 46<275 296>
VStem: 299 47<10 10>
LayerCount: 2
Fore
SplineSet
226 -134 m 1
 249 -98 l 1
 259 -107 274 -110 288 -110 c 0
 304 -110 322 -98 322 -79 c 0
 321 -71 313 -63 295 -63 c 0
 289 -63 283 -63 275 -64 c 1
 299 10 l 1
 346 10 l 1
 339 -23 l 1
 354 -25 373 -42 373 -67 c 0
 373 -114 329 -151 280 -151 c 0
 255 -151 231 -137 226 -134 c 1
EndSplineSet
EndChar

StartChar: onesuperior
Encoding: 265 185 118
Width: 600
Flags: HMW
HStem: 249 56<170 279 181 279 332 419>
VStem: 279 53<305 305>
LayerCount: 2
Fore
SplineSet
170 249 m 1
 181 305 l 1
 279 305 l 1
 324 556 l 1
 233 541 l 1
 244 597 l 1
 390 622 l 1
 332 305 l 1
 430 305 l 1
 419 249 l 1
 170 249 l 1
EndSplineSet
EndChar

StartChar: ordmasculine
Encoding: 235 186 119
Width: 600
Flags: HMW
HStem: 249 59<258.5 306.5> 521 59<288.5 355>
VStem: 137 54<364.5 426 364.5 440.5> 408 54<400.5 440>
LayerCount: 2
Fore
SplineSet
191 391 m 0
 191 338 235 308 282 308 c 0
 343 308 408 361 408 440 c 0
 407 475 389 521 321 521 c 0
 243 521 191 461 191 391 c 0
137 376 m 0
 137 505 246 580 331 580 c 0
 413 580 462 524 462 451 c 0
 462 320 343 249 270 249 c 0
 227 249 137 281 137 376 c 0
EndSplineSet
EndChar

StartChar: guillemotright
Encoding: 187 187 120
Width: 600
Flags: HMW
HStem: 70 21G<104 104 286 286> 426 20G<175 175 355 355>
VStem: 1 560
LayerCount: 2
Fore
SplineSet
255 117 m 1
 445 261 l 1
 317 397 l 1
 355 446 l 1
 525 261 l 1
 286 70 l 1
 255 117 l 1
104 70 m 1
 75 117 l 1
 272 261 l 1
 143 399 l 1
 175 446 l 1
 358 261 l 1
 104 70 l 1
EndSplineSet
EndChar

StartChar: onequarter
Encoding: 266 188 121
Width: 600
Flags: HMW
HStem: -57 21G<29 29> -43 54<319 368 416 449 309 368> 47 55<249 255 255 255 317 377 433 467> 303 53<-4 91 5 91 138 214> 645 20G<571 571>
LayerCount: 2
Fore
SplineSet
-4 303 m 1
 5 356 l 1
 91 356 l 1
 132 598 l 1
 52 584 l 1
 61 638 l 1
 189 662 l 1
 138 356 l 1
 223 356 l 1
 214 303 l 1
 -4 303 l 1
-4 -26 m 1
 571 665 l 1
 605 634 l 1
 29 -57 l 1
 -4 -26 l 1
317 102 m 1
 385 102 l 1
 406 235 l 1
 317 102 l 1
249 47 m 1
 255 102 l 1
 411 311 l 1
 466 311 l 1
 433 102 l 1
 476 102 l 1
 467 47 l 1
 424 47 l 1
 416 11 l 1
 458 11 l 1
 449 -43 l 1
 309 -43 l 1
 319 11 l 1
 368 11 l 1
 377 47 l 1
 249 47 l 1
EndSplineSet
EndChar

StartChar: onehalf
Encoding: 267 189 122
Width: 600
Flags: HMW
HStem: -57 21G<32 32> -44 54<335 469> 264 53<407 432.5> 302 54<21 118 31 118 163 241> 645 20G<566 566>
VStem: 465 48<190.5 225.5>
LayerCount: 2
Fore
SplineSet
254 -44 m 1
 262 6 l 1
 400 114 l 2
 430 137 465 170 465 211 c 0
 465 240 448 264 417 264 c 0
 386 264 351 238 353 201 c 1
 307 201 l 1
 317 264 l 1
 348 298 388 317 426 317 c 0
 488 317 513 273 513 224 c 0
 513 138 454 109 335 10 c 1
 478 10 l 1
 469 -44 l 1
 254 -44 l 1
21 302 m 1
 31 356 l 1
 118 356 l 1
 157 597 l 1
 78 583 l 1
 87 637 l 1
 214 660 l 1
 163 356 l 1
 250 356 l 1
 241 302 l 1
 21 302 l 1
-2 -26 m 1
 566 665 l 1
 602 634 l 1
 32 -57 l 1
 -2 -26 l 1
EndSplineSet
EndChar

StartChar: threequarters
Encoding: 268 190 123
Width: 600
Flags: HMW
HStem: -56 21G<39 39> -42 54<319 369 414 446 310 369> 63 55<318 377 318 421 431 464> 292 55<122 159.5> 613 21G<163 187.5> 646 20G<174 214 560 560>
VStem: 211 47<402 421> 220 48<566 574>
LayerCount: 2
Fore
SplineSet
35 326 m 1
 57 381 l 1
 78 364 107 347 137 347 c 0
 187 347 211 387 211 417 c 0
 211 450 158 454 119 454 c 1
 128 507 l 1
 134 507 l 2
 186 507 220 535 220 574 c 0
 218 599 198 613 177 613 c 0
 149 613 123 593 97 575 c 1
 88 626 l 1
 120 648 157 666 191 666 c 0
 237 666 268 634 268 585 c 0
 268 547 252 509 225 488 c 1
 244 476 261 461 258 421 c 0
 258 347 188 292 131 292 c 0
 96 292 58 312 35 326 c 1
7 -27 m 1
 560 666 l 1
 593 635 l 1
 39 -56 l 1
 7 -27 l 1
318 118 m 1
 387 118 l 1
 406 234 l 1
 318 118 l 1
252 63 m 1
 258 103 l 1
 410 313 l 1
 463 313 l 1
 431 118 l 1
 473 118 l 1
 464 63 l 1
 421 63 l 1
 414 12 l 1
 455 12 l 1
 446 -42 l 1
 310 -42 l 1
 319 12 l 1
 369 12 l 1
 377 63 l 1
 252 63 l 1
EndSplineSet
EndChar

StartChar: questiondown
Encoding: 191 191 124
Width: 600
Flags: HMW
HStem: -157 54<247 313 247 314.5> 312 118<396.5 414.5>
VStem: 120 55<-37 37 -37 49> 352 55<240 240> 426 54<-6 -6>
LayerCount: 2
Fore
SplineSet
340 182 m 1
 352 240 l 1
 407 240 l 1
 386 136 l 1
 314 125 175 92 175 -18 c 0
 175 -56 201 -103 293 -103 c 0
 333 -103 375 -93 412 -77 c 1
 426 -6 l 1
 480 -6 l 1
 457 -125 l 1
 406 -142 344 -157 285 -157 c 0
 195 -157 120 -112 120 -22 c 0
 120 120 257 165 340 182 c 1
337 355 m 0
 337 396 379 430 414 430 c 0
 449 430 471 409 471 386 c 0
 471 346 437 312 392 312 c 0
 359 312 337 331 337 355 c 0
EndSplineSet
EndChar

StartChar: Agrave
Encoding: 269 192 125
Width: 600
Flags: HMW
HStem: 0 54<-2 69 9 69 127 205 398 494 550 591> 178 54 517 54
VStem: -2 207<0 0> 387 204<0 0>
LayerCount: 2
Fore
SplineSet
284 720 m 1
 331 793 l 1
 562 649 l 1
 546 619 l 1
 284 720 l 1
224 231 m 1
 459 231 l 1
 396 526 l 1
 224 231 l 1
-2 0 m 1
 9 54 l 1
 69 54 l 1
 334 511 l 1
 195 511 l 1
 206 565 l 1
 444 565 l 1
 550 54 l 1
 602 54 l 1
 591 0 l 1
 387 0 l 1
 398 54 l 1
 494 54 l 1
 470 177 l 1
 192 177 l 1
 127 54 l 1
 215 54 l 1
 205 0 l 1
 -2 0 l 1
EndSplineSet
EndChar

StartChar: Aacute
Encoding: 270 193 126
Width: 600
Flags: HMW
HStem: 0 54<-25 46 -14 46 104 182 375 471 527 568> 177 55 511 54<183 311 172 421> 773 20G<605 605>
VStem: -25 224 397 221
LayerCount: 2
Fore
SplineSet
201 231 m 1
 436 231 l 1
 373 526 l 1
 201 231 l 1
-25 0 m 1
 -14 54 l 1
 46 54 l 1
 311 511 l 1
 172 511 l 1
 183 565 l 1
 421 565 l 1
 527 54 l 1
 579 54 l 1
 568 0 l 1
 364 0 l 1
 375 54 l 1
 471 54 l 1
 447 177 l 1
 169 177 l 1
 104 54 l 1
 192 54 l 1
 182 0 l 1
 -25 0 l 1
302 619 m 1
 296 649 l 1
 605 793 l 1
 625 720 l 1
 302 619 l 1
EndSplineSet
EndChar

StartChar: Acircumflex
Encoding: 271 194 127
Width: 600
Flags: HMW
HStem: 0 53 173 53 511 54<206 334 195 444> 755 20G<405 484 484 484>
VStem: -2 207<0 0> 387 204<0 0>
LayerCount: 2
Fore
SplineSet
224 231 m 1
 459 231 l 1
 396 526 l 1
 224 231 l 1
-2 0 m 1
 9 54 l 1
 69 54 l 1
 334 511 l 1
 195 511 l 1
 206 565 l 1
 444 565 l 1
 550 54 l 1
 602 54 l 1
 591 0 l 1
 387 0 l 1
 398 54 l 1
 494 54 l 1
 470 177 l 1
 192 177 l 1
 127 54 l 1
 215 54 l 1
 205 0 l 1
 -2 0 l 1
230 623 m 1
 405 775 l 1
 484 775 l 1
 597 623 l 1
 555 605 l 1
 434 720 l 1
 267 605 l 1
 230 623 l 1
EndSplineSet
EndChar

StartChar: Atilde
Encoding: 272 195 128
Width: 600
Flags: HMW
HStem: 0 51 177 54<200 435 200 446 168 435> 511 54<182 310 171 420> 637 49<483.5 512.5 483.5 527.5> 703 49<332.5 365.5>
VStem: -26 207<0 0> 363 204<0 0>
LayerCount: 2
Fore
SplineSet
200 231 m 1
 435 231 l 1
 372 526 l 1
 200 231 l 1
-26 0 m 1
 -15 54 l 1
 45 54 l 1
 310 511 l 1
 171 511 l 1
 182 565 l 1
 420 565 l 1
 526 54 l 1
 578 54 l 1
 567 0 l 1
 363 0 l 1
 374 54 l 1
 470 54 l 1
 446 177 l 1
 168 177 l 1
 103 54 l 1
 191 54 l 1
 181 0 l 1
 -26 0 l 1
216 652 m 1
 246 705 304 752 361 752 c 0
 403 752 425 733 443 716 c 0
 460 700 473 686 494 686 c 0
 531 686 565 723 579 747 c 1
 627 738 l 1
 608 700 562 637 493 637 c 0
 455 637 433 654 413 671 c 0
 394 687 378 703 353 703 c 0
 304 703 277 661 265 642 c 1
 216 652 l 1
EndSplineSet
EndChar

StartChar: Adieresis
Encoding: 273 196 129
Width: 600
Flags: HMW
HStem: 0 51 177 54<224 459 224 470 192 459> 511 54<206 334 195 444> 645 116<305 412 330 387 330 449 473 531>
VStem: -2 207<0 0> 387 204<0 0>
LayerCount: 2
Fore
SplineSet
224 231 m 1
 459 231 l 1
 396 526 l 1
 224 231 l 1
-2 0 m 1
 9 54 l 1
 69 54 l 1
 334 511 l 1
 195 511 l 1
 206 565 l 1
 444 565 l 1
 550 54 l 1
 602 54 l 1
 591 0 l 1
 387 0 l 1
 398 54 l 1
 494 54 l 1
 470 177 l 1
 192 177 l 1
 127 54 l 1
 215 54 l 1
 205 0 l 1
 -2 0 l 1
305 645 m 1
 330 761 l 1
 412 761 l 1
 387 645 l 1
 305 645 l 1
449 645 m 1
 473 761 l 1
 556 761 l 1
 531 645 l 1
 449 645 l 1
EndSplineSet
EndChar

StartChar: Aring
Encoding: 274 197 130
Width: 600
Flags: HMW
HStem: 0 52 192 54 524 54 609 57<418 431.5 418 442.5> 737 56<417.5 451>
VStem: -2 207<0 0> 330 59<677.5 701 677.5 711.5> 462 60<693 706.5>
LayerCount: 2
Fore
SplineSet
224 231 m 1
 459 231 l 1
 396 526 l 1
 224 231 l 1
-2 0 m 1
 9 54 l 1
 69 54 l 1
 334 511 l 1
 195 511 l 1
 206 565 l 1
 444 565 l 1
 550 54 l 1
 602 54 l 1
 591 0 l 1
 387 0 l 1
 398 54 l 1
 494 54 l 1
 470 177 l 1
 192 177 l 1
 127 54 l 1
 215 54 l 1
 205 0 l 1
 -2 0 l 1
389 689 m 0
 389 666 415 666 421 666 c 0
 442 666 462 682 462 704 c 0
 462 709 468 737 434 737 c 0
 401 737 389 713 389 689 c 0
330 681 m 0
 330 742 382 793 445 793 c 0
 510 793 522 751 522 719 c 0
 522 661 473 609 412 609 c 0
 368 609 330 635 330 681 c 0
EndSplineSet
EndChar

StartChar: AE
Encoding: 225 198 131
Width: 600
Flags: HMW
HStem: 0 54<-26 37 -15 37 93 168 321 471> 150 54 253 54 508 54<220 298 209 626 409 409 409 560>
VStem: -26 194<0 0> 255 66<0 54> 428 54<197 197> 490 55<153 153>
LayerCount: 2
Fore
SplineSet
184 219 m 1
 297 219 l 1
 354 507 l 1
 184 219 l 1
-26 0 m 1
 -15 54 l 1
 37 54 l 1
 298 508 l 1
 209 508 l 1
 220 562 l 1
 626 562 l 1
 596 407 l 1
 541 407 l 1
 560 508 l 1
 409 508 l 1
 369 308 l 1
 451 308 l 1
 462 364 l 1
 514 364 l 1
 482 197 l 1
 428 197 l 1
 439 254 l 1
 359 254 l 1
 321 54 l 1
 471 54 l 1
 490 153 l 1
 545 153 l 1
 514 0 l 1
 255 0 l 1
 287 165 l 1
 154 165 l 1
 93 54 l 1
 179 54 l 1
 168 0 l 1
 -26 0 l 1
EndSplineSet
EndChar

StartChar: Ccedilla
Encoding: 275 199 132
Width: 600
Flags: HMW
HStem: -151 55<172 190> -4 51<234 280> 529 51<299 378 255 379.5>
VStem: 17 58<195.5 323> 186 48<-4 24> 481 56<371 371>
LayerCount: 2
Fore
SplineSet
113 -127 m 1
 142 -81 l 1
 152 -88 165 -96 179 -96 c 0
 208 -96 214 -74 214 -63 c 0
 214 -53 203 -45 190 -45 c 0
 183 -45 174 -45 167 -49 c 1
 186 24 l 1
 87 39 17 130 17 235 c 0
 17 411 159 580 351 580 c 0
 405 580 448 566 514 522 c 1
 527 580 l 1
 582 580 l 1
 537 371 l 1
 481 371 l 1
 501 456 l 1
 470 499 412 529 347 529 c 0
 251 529 75 429 75 254 c 0
 75 137 147 47 260 47 c 0
 331 47 401 96 463 133 c 1
 479 89 l 1
 407.546362731 47.318711593 327.228797894 -3.22650438171 236.092491096 -3.99121658708 c 1
 252.970106433 -13.9033393303 264.999999995 -35.3427012835 265 -64 c 0
 265 -128 210 -151 170 -151 c 0
 142 -151 118 -134 113 -127 c 1
EndSplineSet
EndChar

StartChar: Egrave
Encoding: 276 200 133
Width: 600
Flags: HMW
HStem: 0 54<-3 89 7 89 144 449> 255 54<197 350 185 361> 511 54<109 181 97 604 237 237 237 535>
VStem: 89 55<54 54> 334 56<173 173> 449 45
LayerCount: 2
Fore
SplineSet
528 619 m 1
 206 720 l 1
 234 793 l 1
 543 649 l 1
 528 619 l 1
-3 0 m 1
 7 54 l 1
 89 54 l 1
 181 511 l 1
 97 511 l 1
 109 565 l 1
 604 565 l 1
 566 376 l 1
 509 376 l 1
 535 511 l 1
 237 511 l 1
 197 309 l 1
 361 309 l 1
 378 392 l 1
 435 392 l 1
 390 173 l 1
 334 173 l 1
 350 255 l 1
 185 255 l 1
 144 54 l 1
 449 54 l 1
 476 189 l 1
 532 189 l 1
 494 0 l 1
 -3 0 l 1
EndSplineSet
EndChar

StartChar: Eacute
Encoding: 277 201 134
Width: 600
Flags: HMW
HStem: 0 54<-3 89 7 89 144 449> 255 54<197 350 185 361> 511 54<109 181 97 604 237 237 237 535> 773 20G<570 570>
VStem: 90 56 339 57 456 46
LayerCount: 2
Fore
SplineSet
-3 0 m 1
 7 54 l 1
 89 54 l 1
 181 511 l 1
 97 511 l 1
 109 565 l 1
 604 565 l 1
 566 376 l 1
 509 376 l 1
 535 511 l 1
 237 511 l 1
 197 309 l 1
 361 309 l 1
 378 392 l 1
 435 392 l 1
 390 173 l 1
 334 173 l 1
 350 255 l 1
 185 255 l 1
 144 54 l 1
 449 54 l 1
 476 189 l 1
 532 189 l 1
 494 0 l 1
 -3 0 l 1
268 619 m 1
 261 649 l 1
 570 793 l 1
 589 720 l 1
 268 619 l 1
EndSplineSet
EndChar

StartChar: Ecircumflex
Encoding: 278 202 135
Width: 600
Flags: HMW
HStem: 0 54<-3 89 7 89 144 449> 255 54<197 350 185 361> 511 54<109 181 97 604 237 237 237 535>
VStem: 89 55<54 54>
LayerCount: 2
Fore
SplineSet
-3 0 m 1
 7 54 l 1
 89 54 l 1
 181 511 l 1
 97 511 l 1
 109 565 l 1
 604 565 l 1
 566 376 l 1
 509 376 l 1
 535 511 l 1
 237 511 l 1
 197 309 l 1
 361 309 l 1
 378 392 l 1
 435 392 l 1
 390 173 l 1
 334 173 l 1
 350 255 l 1
 185 255 l 1
 144 54 l 1
 449 54 l 1
 476 189 l 1
 532 189 l 1
 494 0 l 1
 -3 0 l 1
192 633 m 1
 378 785 l 1
 463 785 l 1
 582 633 l 1
 536 615 l 1
 408 730 l 1
 231 615 l 1
 192 633 l 1
EndSplineSet
EndChar

StartChar: Edieresis
Encoding: 279 203 136
Width: 600
Flags: HMW
HStem: 0 51 255 21G<185 350 185 185> 545 20G<109 604 604 604> 655 116<272 385 298 359 298 425 450 512>
VStem: 89 55<54 54>
LayerCount: 2
Fore
SplineSet
-3 0 m 1
 7 54 l 1
 89 54 l 1
 181 511 l 1
 97 511 l 1
 109 565 l 1
 604 565 l 1
 566 376 l 1
 509 376 l 1
 535 511 l 1
 237 511 l 1
 197 309 l 1
 361 309 l 1
 378 392 l 1
 435 392 l 1
 390 173 l 1
 334 173 l 1
 350 255 l 1
 185 255 l 1
 144 54 l 1
 449 54 l 1
 476 189 l 1
 532 189 l 1
 494 0 l 1
 -3 0 l 1
272 655 m 1
 298 771 l 1
 385 771 l 1
 359 655 l 1
 272 655 l 1
425 655 m 1
 450 771 l 1
 537 771 l 1
 512 655 l 1
 425 655 l 1
EndSplineSet
EndChar

StartChar: Igrave
Encoding: 280 204 137
Width: 600
Flags: HMW
HStem: 0 54<36 224 47 224 283 447> 510 55<156 319 145 563 378 378 378 551> 773 20G<287 287>
VStem: 224 59<54 54>
LayerCount: 2
Fore
SplineSet
235 720 m 1
 287 793 l 1
 543 649 l 1
 524 619 l 1
 235 720 l 1
36 0 m 1
 47 54 l 1
 224 54 l 1
 319 510 l 1
 145 510 l 1
 156 565 l 1
 563 565 l 1
 551 510 l 1
 378 510 l 1
 283 54 l 1
 460 54 l 1
 447 0 l 1
 36 0 l 1
EndSplineSet
EndChar

StartChar: Iacute
Encoding: 281 205 138
Width: 600
Flags: HMW
HStem: 0 54<29 216 40 216 274 438> 511 55<149 310 136 554 370 370 370 542> 773 20G<552 552>
VStem: 216 58<54 54>
LayerCount: 2
Fore
SplineSet
29 0 m 1
 40 54 l 1
 216 54 l 1
 310 511 l 1
 136 511 l 1
 149 566 l 1
 554 566 l 1
 542 511 l 1
 370 511 l 1
 274 54 l 1
 449 54 l 1
 438 0 l 1
 29 0 l 1
244 620 m 1
 237 650 l 1
 552 793 l 1
 571 720 l 1
 244 620 l 1
EndSplineSet
EndChar

StartChar: Icircumflex
Encoding: 282 206 139
Width: 600
Flags: HMW
HStem: 0 53 510 55<156 319 145 563 378 378 378 551>
VStem: 224 59<54 54>
LayerCount: 2
Fore
SplineSet
36 0 m 1
 47 54 l 1
 224 54 l 1
 319 510 l 1
 145 510 l 1
 156 565 l 1
 563 565 l 1
 551 510 l 1
 378 510 l 1
 283 54 l 1
 460 54 l 1
 447 0 l 1
 36 0 l 1
171 631 m 1
 357 785 l 1
 442 785 l 1
 563 631 l 1
 517 614 l 1
 389 730 l 1
 210 614 l 1
 171 631 l 1
EndSplineSet
EndChar

StartChar: Idieresis
Encoding: 283 207 140
Width: 600
Flags: HMW
HStem: 0 51 510 55<156 319 145 563 378 378 378 551> 751 20G<286 376 376 376 445 535 535 535>
VStem: 224 59<54 54>
LayerCount: 2
Fore
SplineSet
36 0 m 1
 47 54 l 1
 224 54 l 1
 319 510 l 1
 145 510 l 1
 156 565 l 1
 563 565 l 1
 551 510 l 1
 378 510 l 1
 283 54 l 1
 460 54 l 1
 447 0 l 1
 36 0 l 1
259 654 m 1
 286 771 l 1
 376 771 l 1
 349 654 l 1
 259 654 l 1
417 654 m 1
 445 771 l 1
 535 771 l 1
 509 654 l 1
 417 654 l 1
EndSplineSet
EndChar

StartChar: Eth
Encoding: 284 208 141
Width: 600
Flags: HMW
HStem: 0 54<-1 90 10 90 145 218> 249 52<64 129 52 140 64 183 195 376> 508 54<112 180 101 360 236 236 236 337>
VStem: 537 64
LayerCount: 2
Fore
SplineSet
145 54 m 1
 257 54 l 2
 423 54 529 201 529 335 c 0
 529 465 487 508 337 508 c 2
 236 508 l 1
 195 301 l 1
 387 301 l 1
 376 249 l 1
 183 249 l 1
 145 54 l 1
-1 0 m 1
 10 54 l 1
 90 54 l 1
 129 249 l 1
 52 249 l 1
 64 301 l 1
 140 301 l 1
 180 508 l 1
 101 508 l 1
 112 562 l 1
 360 562 l 2
 494 562 593 511 593 369 c 0
 593 86 412 0 218 0 c 2
 -1 0 l 1
EndSplineSet
EndChar

StartChar: Ntilde
Encoding: 285 209 142
Width: 600
Flags: HMW
HStem: -13 52<-42 52 -31 52 109 209> 481 52<72 143 60 232 416 515 572 572 572 652> 617 49<465.5 498.5 465.5 509.5> 682 50<306.5 344.5>
LayerCount: 2
Fore
SplineSet
185 632 m 1
 216 686 277 732 336 732 c 0
 381 732 402 713 421 695 c 0
 437 680 452 666 479 666 c 0
 518 666 548 705 562 729 c 1
 613 720 l 1
 593 681 545 617 474 617 c 0
 441 617 421 631 402 646 c 0
 380 663 361 682 328 682 c 0
 277 682 248 641 236 621 c 1
 185 632 l 1
-42 -13 m 1
 -31 39 l 1
 52 39 l 1
 143 481 l 1
 60 481 l 1
 72 533 l 1
 232 533 l 1
 428 58 l 1
 515 481 l 1
 405 481 l 1
 416 533 l 1
 663 533 l 1
 652 481 l 1
 572 481 l 1
 470 -13 l 1
 394 -13 l 1
 196 458 l 1
 109 39 l 1
 220 39 l 1
 209 -13 l 1
 -42 -13 l 1
EndSplineSet
EndChar

StartChar: Ograve
Encoding: 286 210 143
Width: 600
Flags: HMW
HStem: -18 54<200.5 321.5 200.5 336.5> 523 54<268 419> 773 20G<287 287>
VStem: 34 54 510 55
LayerCount: 2
Fore
SplineSet
89 220 m 0
 89 120 146 36 255 36 c 0
 388 36 511 208 511 335 c 0
 511 416 486 523 352 523 c 0
 184 523 89 330 89 220 c 0
34 212 m 0
 34 377 156 577 360 577 c 0
 521 577 565 452 565 354 c 0
 565 167 429 -18 244 -18 c 0
 110 -18 34 83 34 212 c 0
238 720 m 1
 287 793 l 1
 522 650 l 1
 506 620 l 1
 238 720 l 1
EndSplineSet
EndChar

StartChar: Oacute
Encoding: 287 211 144
Width: 600
Flags: HMW
HStem: -18 54<200.5 321.5 200.5 336.5> 522 54
VStem: 31 55 519 56
LayerCount: 2
Fore
SplineSet
89 220 m 0
 89 120 146 36 255 36 c 0
 388 36 511 208 511 335 c 0
 511 416 486 523 352 523 c 0
 184 523 89 330 89 220 c 0
34 212 m 0
 34 377 156 577 360 577 c 0
 521 577 565 452 565 354 c 0
 565 167 429 -18 244 -18 c 0
 110 -18 34 83 34 212 c 0
259 619 m 1
 246 648 l 1
 535 793 l 1
 554 719 l 1
 259 619 l 1
EndSplineSet
EndChar

StartChar: Ocircumflex
Encoding: 288 212 145
Width: 600
Flags: HMW
HStem: -18 54<200.5 321.5 200.5 336.5> 523 54<268 419> 755 20G<363 443 443 443>
VStem: 34 54 510 55
LayerCount: 2
Fore
SplineSet
89 220 m 0
 89 120 146 36 255 36 c 0
 388 36 511 208 511 335 c 0
 511 416 486 523 352 523 c 0
 184 523 89 330 89 220 c 0
34 212 m 0
 34 377 156 577 360 577 c 0
 521 577 565 452 565 354 c 0
 565 167 429 -18 244 -18 c 0
 110 -18 34 83 34 212 c 0
183 622 m 1
 363 775 l 1
 443 775 l 1
 559 622 l 1
 516 605 l 1
 393 720 l 1
 221 605 l 1
 183 622 l 1
EndSplineSet
EndChar

StartChar: Otilde
Encoding: 289 213 146
Width: 600
Flags: HMW
HStem: -18 52 523 54<268 419> 647 49<427 457.5 427 470> 713 49<272.5 309.5>
VStem: 19 59 496 54
LayerCount: 2
Fore
SplineSet
89 220 m 0
 89 120 146 36 255 36 c 0
 388 36 511 208 511 335 c 0
 511 416 486 523 352 523 c 0
 184 523 89 330 89 220 c 0
34 212 m 0
 34 377 156 577 360 577 c 0
 521 577 565 452 565 354 c 0
 565 167 429 -18 244 -18 c 0
 110 -18 34 83 34 212 c 0
154 662 m 1
 184 716 244 762 301 762 c 0
 349 762 370 740 388 722 c 0
 402 708 415 696 439 696 c 0
 476 696 508 734 521 758 c 1
 572 749 l 1
 553 710 505 647 435 647 c 0
 398 647 379 663 362 679 c 0
 344 696 327 713 292 713 c 0
 244 713 216 671 204 651 c 1
 154 662 l 1
EndSplineSet
EndChar

StartChar: Odieresis
Encoding: 290 214 147
Width: 600
Flags: HMW
HStem: -18 51 523 54<268 419> 644 117<261 370 287 345 287 407 432 490>
VStem: 34 55<170 275 170 294.5> 261 84<644 644> 407 83<644 644> 509 56
LayerCount: 2
Fore
SplineSet
89 220 m 0
 89 120 146 36 255 36 c 0
 388 36 511 208 511 335 c 0
 511 416 486 523 352 523 c 0
 184 523 89 330 89 220 c 0
34 212 m 0
 34 377 156 577 360 577 c 0
 521 577 565 452 565 354 c 0
 565 167 429 -18 244 -18 c 0
 110 -18 34 83 34 212 c 0
261 644 m 1
 287 761 l 1
 370 761 l 1
 345 644 l 1
 261 644 l 1
407 644 m 1
 432 761 l 1
 516 761 l 1
 490 644 l 1
 407 644 l 1
EndSplineSet
EndChar

StartChar: multiply
Encoding: 291 215 148
Width: 600
Flags: HMW
HStem: 43 21G<94 94 431 431> 450 20G<512 512>
LayerCount: 2
Fore
SplineSet
48 89 m 1
 254 261 l 1
 116 430 l 1
 162 469 l 1
 301 297 l 1
 512 470 l 1
 552 425 l 1
 339 252 l 1
 479 82 l 1
 431 43 l 1
 293 212 l 1
 94 43 l 1
 48 89 l 1
EndSplineSet
EndChar

StartChar: Oslash
Encoding: 233 216 149
Width: 600
Flags: HMW
HStem: -24 21G<51 51> -9 52<235 320.5 235 325.5> 514 53<274.5 373>
LayerCount: 2
Fore
SplineSet
459 472 m 1
 435 498 399 514 347 514 c 0
 198 514 118 363 100 277 c 0
 89 217 96 161 121 118 c 1
 459 472 l 1
499 277 m 0
 506 317 509 380 486 432 c 1
 151 82 l 1
 177 58 213 43 257 43 c 0
 384 43 475 155 499 277 c 0
553 279 m 0
 522 121 404 -9 247 -9 c 0
 190 -9 144 8 110 38 c 1
 51 -24 l 1
 15 7 l 1
 78 74 l 1
 43 125 32 199 48 279 c 0
 74 416 189 567 360 567 c 0
 425 567 469 546 500 515 c 1
 550 567 l 1
 585 535 l 1
 529 476 l 1
 565 413 563 330 553 279 c 0
EndSplineSet
EndChar

StartChar: Ugrave
Encoding: 292 217 150
Width: 600
Flags: HMW
HStem: -18 54<163.5 260 163.5 262> 509 56<11 260 22 92 144 144 144 249 357 448 500 500 500 577> 773 20G<237 237>
VStem: 92 52<509 509> 448 52<509 509>
LayerCount: 2
Fore
SplineSet
190 720 m 1
 237 793 l 1
 468 649 l 1
 451 619 l 1
 190 720 l 1
11 509 m 1
 22 565 l 1
 260 565 l 1
 249 509 l 1
 144 509 l 1
 88 216 l 2
 84 195 81 176 81 158 c 0
 81 77 119 36 208 36 c 0
 312 36 368 91 389 199 c 2
 448 509 l 1
 346 509 l 1
 357 565 l 1
 588 565 l 1
 577 509 l 1
 500 509 l 1
 440 192 l 2
 412 36 325 -18 199 -18 c 0
 79 -18 29 40 29 131 c 0
 29 158 32 188 38 220 c 2
 92 509 l 1
 11 509 l 1
EndSplineSet
EndChar

StartChar: Uacute
Encoding: 293 218 151
Width: 600
Flags: HMW
HStem: -18 54<163.5 260 163.5 262> 509 56<11 260 22 92 144 144 144 249 357 448 500 500 500 577> 773 20G<486 486>
VStem: 92 52<509 509> 448 52<509 509>
LayerCount: 2
Fore
SplineSet
11 509 m 1
 22 565 l 1
 260 565 l 1
 249 509 l 1
 144 509 l 1
 88 216 l 2
 84 195 81 176 81 158 c 0
 81 77 119 36 208 36 c 0
 312 36 368 91 389 199 c 2
 448 509 l 1
 346 509 l 1
 357 565 l 1
 588 565 l 1
 577 509 l 1
 500 509 l 1
 440 192 l 2
 412 36 325 -18 199 -18 c 0
 79 -18 29 40 29 131 c 0
 29 158 32 188 38 220 c 2
 92 509 l 1
 11 509 l 1
216 614 m 1
 200 648 l 1
 486 793 l 1
 503 722 l 1
 216 614 l 1
EndSplineSet
EndChar

StartChar: Ucircumflex
Encoding: 294 219 152
Width: 600
Flags: HMW
HStem: -18 54<163.5 260 163.5 262> 509 56<11 260 22 92 144 144 144 249 357 448 500 500 500 577> 750 55<343 343>
VStem: 92 52<509 509> 448 52<509 509>
LayerCount: 2
Fore
SplineSet
11 509 m 1
 22 565 l 1
 260 565 l 1
 249 509 l 1
 144 509 l 1
 88 216 l 2
 84 195 81 176 81 158 c 0
 81 77 119 36 208 36 c 0
 312 36 368 91 389 199 c 2
 448 509 l 1
 346 509 l 1
 357 565 l 1
 588 565 l 1
 577 509 l 1
 500 509 l 1
 440 192 l 2
 412 36 325 -18 199 -18 c 0
 79 -18 29 40 29 131 c 0
 29 158 32 188 38 220 c 2
 92 509 l 1
 11 509 l 1
174 634 m 1
 137 651 l 1
 312 805 l 1
 391 805 l 1
 503 651 l 1
 461 634 l 1
 343 750 l 1
 174 634 l 1
EndSplineSet
EndChar

StartChar: Udieresis
Encoding: 295 220 153
Width: 600
Flags: HMW
HStem: -18 54<163.5 260 163.5 262> 509 56<11 260 22 92 144 144 144 249 357 448 500 500 500 577>
VStem: 92 52<509 509> 448 52<509 509>
LayerCount: 2
Fore
SplineSet
11 509 m 1
 22 565 l 1
 260 565 l 1
 249 509 l 1
 144 509 l 1
 88 216 l 2
 84 195 81 176 81 158 c 0
 81 77 119 36 208 36 c 0
 312 36 368 91 389 199 c 2
 448 509 l 1
 346 509 l 1
 357 565 l 1
 588 565 l 1
 577 509 l 1
 500 509 l 1
 440 192 l 2
 412 36 325 -18 199 -18 c 0
 79 -18 29 40 29 131 c 0
 29 158 32 188 38 220 c 2
 92 509 l 1
 11 509 l 1
213 653 m 1
 237 771 l 1
 319 771 l 1
 295 653 l 1
 213 653 l 1
356 653 m 1
 380 771 l 1
 462 771 l 1
 437 653 l 1
 356 653 l 1
EndSplineSet
EndChar

StartChar: Yacute
Encoding: 296 221 154
Width: 600
Flags: HMW
HStem: 0 54<41 179 53 179 235 350> 511 54<30 89 19 233 151 151 151 222 383 442 503 503 503 570> 773 20G<498 498>
VStem: 179 56<54 54>
LayerCount: 2
Fore
SplineSet
213 617 m 1
 197 649 l 1
 498 793 l 1
 516 719 l 1
 213 617 l 1
41 0 m 1
 53 54 l 1
 179 54 l 1
 213 229 l 1
 89 511 l 1
 19 511 l 1
 30 565 l 1
 233 565 l 1
 222 511 l 1
 151 511 l 1
 252 283 l 1
 442 511 l 1
 372 511 l 1
 383 565 l 1
 581 565 l 1
 570 511 l 1
 503 511 l 1
 269 229 l 1
 235 54 l 1
 361 54 l 1
 350 0 l 1
 41 0 l 1
EndSplineSet
EndChar

StartChar: Thorn
Encoding: 297 222 155
Width: 600
Flags: HMW
HStem: 0 54<36 150 46 150 199 330> 124 54<222 341 212 353> 379 54<266 391 257 410> 508 54<136 231 126 393 280 280 280 384>
VStem: 510 53<266.5 340.5>
LayerCount: 2
Fore
SplineSet
222 178 m 1
 353 178 l 2
 436 178 510 217 510 316 c 0
 510 365 444 379 391 379 c 2
 257 379 l 1
 222 178 l 1
36 0 m 1
 46 54 l 1
 150 54 l 1
 231 508 l 1
 126 508 l 1
 136 562 l 1
 393 562 l 1
 384 508 l 1
 280 508 l 1
 266 433 l 1
 410 433 l 2
 494 433 563 396 563 324 c 0
 563 166 450 124 341 124 c 2
 212 124 l 1
 199 54 l 1
 340 54 l 1
 330 0 l 1
 36 0 l 1
EndSplineSet
EndChar

StartChar: germandbls
Encoding: 251 223 156
Width: 600
Flags: HMW
HStem: -15 55<326 366 326 383.5> -3 56<15 108 26 108 26 151> 379 56<98 171 88 181> 574 55<339 425.5>
VStem: 304 53<311.5 372.5 311.5 393.5> 517 54<468.5 545.5> 527 57<106 153.5>
LayerCount: 2
Fore
SplineSet
15 -3 m 1
 26 53 l 1
 108 53 l 1
 171 379 l 1
 88 379 l 1
 98 435 l 1
 181 435 l 1
 187 462 l 1
 205 601 291 629 387 629 c 0
 504 629 571 608 571 515 c 0
 571 370 357 416 357 329 c 0
 357 294 434 284 490 258 c 0
 537 238 584 205 584 159 c 0
 584 25 425 -15 342 -15 c 0
 285 -15 232 11 191 41 c 1
 223 97 l 1
 257 65 301 40 351 40 c 0
 381 40 527 70 527 142 c 0
 527 165 514 188 469 209 c 0
 435 224 304 248 304 322 c 0
 304 465 517 419 517 518 c 0
 517 573 464 574 387 574 c 0
 284 574 258 549 244 479 c 2
 151 -3 l 1
 15 -3 l 1
EndSplineSet
EndChar

StartChar: agrave
Encoding: 298 224 157
Width: 600
Flags: HMW
HStem: -15 56<170 223.5> -3 56<456 529> 212 57<271.5 323.5> 392 57<322.5 350.5> 652 20G<286 286>
VStem: 47 58<86 136> 451 57<338.5 346 338.5 365>
LayerCount: 2
Fore
SplineSet
420 149 m 1
 430 199 l 1
 388 206 346 212 301 212 c 0
 242 212 105 200 105 102 c 0
 105 70 144 41 196 41 c 0
 279 41 356 88 420 149 c 1
391 -3 m 1
 407 82 l 1
 341 28 262 -15 185 -15 c 0
 93 -15 47 40 47 98 c 0
 47 174 110 269 299 269 c 0
 348 269 397 262 441 255 c 1
 451 321 l 1
 451 409 365 392 336 392 c 0
 267 392 178 365 143 350 c 1
 139 404 l 1
 203 429 288 449 357 449 c 0
 462 449 507 410 508 346 c 0
 508 331 507 315 456 53 c 1
 540 53 l 1
 529 -3 l 1
 391 -3 l 1
236 595 m 1
 286 672 l 1
 527 523 l 1
 509 492 l 1
 236 595 l 1
EndSplineSet
EndChar

StartChar: acircumflex
Encoding: 299 226 158
Width: 600
Flags: HMW
HStem: -15 56<170 223.5> -3 56<456 529> 212 57<271.5 323.5> 392 57<322.5 350.5> 634 20G<351 432 432 432>
VStem: 47 58<86 136> 451 57<338.5 346 338.5 365>
LayerCount: 2
Fore
SplineSet
420 149 m 1
 430 199 l 1
 388 206 346 212 301 212 c 0
 242 212 105 200 105 102 c 0
 105 70 144 41 196 41 c 0
 279 41 356 88 420 149 c 1
391 -3 m 1
 407 82 l 1
 341 28 262 -15 185 -15 c 0
 93 -15 47 40 47 98 c 0
 47 174 110 269 299 269 c 0
 348 269 397 262 441 255 c 1
 451 321 l 1
 451 409 365 392 336 392 c 0
 267 392 178 365 143 350 c 1
 139 404 l 1
 203 429 288 449 357 449 c 0
 462 449 507 410 508 346 c 0
 508 331 507 315 456 53 c 1
 540 53 l 1
 529 -3 l 1
 391 -3 l 1
168 497 m 1
 351 654 l 1
 432 654 l 1
 552 497 l 1
 505 479 l 1
 381 598 l 1
 206 479 l 1
 168 497 l 1
EndSplineSet
EndChar

StartChar: aacute
Encoding: 300 225 159
Width: 600
Flags: HMW
HStem: -15 56<170 223.5> -3 56<456 529> 212 57<271.5 323.5> 392 57<322.5 350.5> 652 20G<499 499>
VStem: 47 58<86 136> 451 57<338.5 346 338.5 365>
LayerCount: 2
Fore
SplineSet
420 149 m 1
 430 199 l 1
 388 206 346 212 301 212 c 0
 242 212 105 200 105 102 c 0
 105 70 144 41 196 41 c 0
 279 41 356 88 420 149 c 1
391 -3 m 1
 407 82 l 1
 341 28 262 -15 185 -15 c 0
 93 -15 47 40 47 98 c 0
 47 174 110 269 299 269 c 0
 348 269 397 262 441 255 c 1
 451 321 l 1
 451 409 365 392 336 392 c 0
 267 392 178 365 143 350 c 1
 139 404 l 1
 203 429 288 449 357 449 c 0
 462 449 507 410 508 346 c 0
 508 331 507 315 456 53 c 1
 540 53 l 1
 529 -3 l 1
 391 -3 l 1
524 595 m 1
 251 492 l 1
 233 523 l 1
 499 672 l 1
 524 595 l 1
EndSplineSet
EndChar

StartChar: atilde
Encoding: 301 227 160
Width: 600
Flags: HMW
HStem: -15 56<170 223.5> -3 56<456 529> 212 57<271.5 323.5> 392 57<322.5 350.5> 508 50<425.5 457 425.5 460.5> 577 49<266.5 301> 610 21G<575 576 576 576>
VStem: 47 58<86 136> 451 57<338.5 346 338.5 365>
LayerCount: 2
Fore
SplineSet
420 149 m 1
 430 199 l 1
 388 206 346 212 301 212 c 0
 242 212 105 200 105 102 c 0
 105 70 144 41 196 41 c 0
 279 41 356 88 420 149 c 1
391 -3 m 1
 407 82 l 1
 341 28 262 -15 185 -15 c 0
 93 -15 47 40 47 98 c 0
 47 174 110 269 299 269 c 0
 348 269 397 262 441 255 c 1
 451 321 l 1
 451 409 365 392 336 392 c 0
 267 392 178 365 143 350 c 1
 139 404 l 1
 203 429 288 449 357 449 c 0
 462 449 507 410 508 346 c 0
 508 331 507 315 456 53 c 1
 540 53 l 1
 529 -3 l 1
 391 -3 l 1
141 522 m 1
 177 587 240 626 293 626 c 0
 347 626 364 599 386 579 c 0
 399 567 413 558 438 558 c 0
 476 558 511 595 526 619 c 1
 575 610 l 1
 576 610 l 1
 544 555 493 508 428 508 c 0
 400 508 381 518 365 531 c 0
 339 551 320 577 282 577 c 0
 245 577 198 527 191 512 c 1
 141 522 l 1
EndSplineSet
EndChar

StartChar: adieresis
Encoding: 302 228 161
Width: 600
Flags: HMW
HStem: -15 56<170 223.5> -3 56<456 529> 212 57<271.5 323.5> 392 57<322.5 350.5> 519 116<245 355 270 330 270 395 419 479>
VStem: 47 58<86 136> 451 57<338.5 346 338.5 365>
LayerCount: 2
Fore
SplineSet
420 149 m 1
 430 199 l 1
 388 206 346 212 301 212 c 0
 242 212 105 200 105 102 c 0
 105 70 144 41 196 41 c 0
 279 41 356 88 420 149 c 1
391 -3 m 1
 407 82 l 1
 341 28 262 -15 185 -15 c 0
 93 -15 47 40 47 98 c 0
 47 174 110 269 299 269 c 0
 348 269 397 262 441 255 c 1
 451 321 l 1
 451 409 365 392 336 392 c 0
 267 392 178 365 143 350 c 1
 139 404 l 1
 203 429 288 449 357 449 c 0
 462 449 507 410 508 346 c 0
 508 331 507 315 456 53 c 1
 540 53 l 1
 529 -3 l 1
 391 -3 l 1
245 519 m 1
 270 635 l 1
 355 635 l 1
 330 519 l 1
 245 519 l 1
395 519 m 1
 419 635 l 1
 504 635 l 1
 479 519 l 1
 395 519 l 1
EndSplineSet
EndChar

StartChar: aring
Encoding: 303 229 162
Width: 600
Flags: HMW
HStem: -15 56<170 223.5> -3 56<456 529> 212 57<271.5 323.5> 392 57<322.5 350.5> 487 180<375 397.5> 613 21G<382 402.5>
VStem: 47 58<86 136> 451 57<338.5 346 338.5 365>
LayerCount: 2
Fore
SplineSet
420 149 m 1
 430 199 l 1
 388 206 346 212 301 212 c 0
 242 212 105 200 105 102 c 0
 105 70 144 41 196 41 c 0
 279 41 356 88 420 149 c 1
391 -3 m 1
 407 82 l 1
 341 28 262 -15 185 -15 c 0
 93 -15 47 40 47 98 c 0
 47 174 110 269 299 269 c 0
 348 269 397 262 441 255 c 1
 451 321 l 1
 451 409 365 392 336 392 c 0
 267 392 178 365 143 350 c 1
 139 404 l 1
 203 429 288 449 357 449 c 0
 462 449 507 410 508 346 c 0
 508 331 507 315 456 53 c 1
 540 53 l 1
 529 -3 l 1
 391 -3 l 1
348 567 m 0
 348 554 363 542 379 542 c 0
 403 542 426 564 426 589 c 0
 426 603 411 613 394 613 c 0
 370 613 348 592 348 567 c 0
286 557 m 0
 286 617 344 667 406 667 c 0
 454 667 487 636 487 594 c 0
 487 536 427 487 368 487 c 0
 321 487 286 517 286 557 c 0
EndSplineSet
EndChar

StartChar: ae
Encoding: 241 230 163
Width: 600
Flags: HMW
HStem: -15 54<105.5 126 387.5 426.5> 204 55<271 282 340 535 282 326> 386 55<219 248 448.5 506>
VStem: 8 59<78 134 78 143>
LayerCount: 2
Fore
SplineSet
254 127 m 1
 271 204 l 1
 260 208 229 201 201 201 c 0
 143 200 67 172 67 96 c 0
 67 60 88 39 123 39 c 0
 187 39 238 105 254 127 c 1
340 259 m 1
 535 259 l 1
 539 309 543 386 469 386 c 0
 407 386 356 323 340 259 c 1
273 76 m 1
 224 -10 139 -15 113 -15 c 0
 59 -15 8 15 8 82 c 0
 8 204 123 254 218 255 c 0
 239 255 261 263 282 259 c 1
 288 284 l 2
 292 299 292 323 292 334 c 0
 291 367 274 386 222 386 c 0
 181 386 138 372 101 359 c 1
 101 412 l 1
 148 428 192 441 246 441 c 0
 342 441 345 388 348 374 c 1
 383 415 421 441 476 441 c 0
 564 441 592 372 592 299 c 0
 592 263 587 238 579 204 c 1
 326 204 l 1
 325 191 l 2
 324 178 320 165 320 153 c 0
 318 88 349 39 426 39 c 0
 462 39 503 52 536 61 c 1
 537 7 l 1
 497 -4 449 -15 404 -15 c 0
 325 -15 281 25 273 76 c 1
EndSplineSet
EndChar

StartChar: ccedilla
Encoding: 304 231 164
Width: 600
Flags: HMW
HStem: -157 21G<197 231.5> 9 51<221 221 269 269> 388 53<269 360> 420 20G<498 554 554 554>
VStem: 46 58<169.5 244 169.5 244>
LayerCount: 2
Fore
SplineSet
146 -138 m 1
 168 -100 l 1
 177 -111 197 -117 209 -117 c 0
 229 -117 247 -103 247 -83 c 0
 247 -72 234 -59 221 -59 c 0
 213 -59 206 -60 201 -62 c 1
 221 9 l 1
 122 19 46 81 46 182 c 0
 46 306 147 441 343 441 c 0
 402 441 448 426 489 397 c 1
 498 440 l 1
 554 440 l 1
 517 267 l 1
 461 267 l 1
 477 342 l 1
 440 376 389 388 331 388 c 0
 207 388 104 288 104 200 c 0
 104 139 140 60 276 60 c 0
 359 60 449 114 480 135 c 1
 491 83 l 1
 427 43 355 13 269 9 c 1
 264 -15 l 1
 278 -20 297 -50 297 -74 c 0
 297 -126 257 -157 206 -157 c 0
 188 -157 168 -153 146 -138 c 1
EndSplineSet
EndChar

StartChar: egrave
Encoding: 305 232 165
Width: 600
Flags: HMW
HStem: -15 55<248.5 306.5> 200 57 394 57<282.5 412> 652 20G<283 283>
VStem: 54 58<106.5 158 106 244>
LayerCount: 2
Fore
SplineSet
134 257 m 1
 487 257 l 1
 487 282 483 394 341 394 c 0
 224 394 155 316 134 257 c 1
118 201 m 1
 112 183 112 166 112 150 c 0
 112 62 213 40 284 40 c 0
 333 40 417 60 506 105 c 1
 513 51 l 1
 439 14 349 -15 264 -15 c 0
 112 -15 54 59 54 154 c 0
 54 334 192 451 352 451 c 0
 488 451 546 366 546 273 c 0
 546 252 542 221 538 199 c 1
 118 201 l 1
233 597 m 1
 283 672 l 1
 527 525 l 1
 509 495 l 1
 233 597 l 1
EndSplineSet
EndChar

StartChar: eacute
Encoding: 306 233 166
Width: 600
Flags: HMW
HStem: -15 55<248.5 306.5> 199 58<134 538> 394 57<282.5 412> 652 20G<524 524>
VStem: 54 60
LayerCount: 2
Fore
SplineSet
134 257 m 1
 487 257 l 1
 487 282 483 394 341 394 c 0
 224 394 155 316 134 257 c 1
118 201 m 1
 112 183 112 166 112 150 c 0
 112 62 213 40 284 40 c 0
 333 40 417 60 506 105 c 1
 513 51 l 1
 439 14 349 -15 264 -15 c 0
 112 -15 54 59 54 154 c 0
 54 334 192 451 352 451 c 0
 488 451 546 366 546 273 c 0
 546 252 542 221 538 199 c 1
 118 201 l 1
228 494 m 1
 222 526 l 1
 524 672 l 1
 544 597 l 1
 228 494 l 1
EndSplineSet
EndChar

StartChar: ecircumflex
Encoding: 307 234 167
Width: 600
Flags: HMW
HStem: -15 55<248.5 306.5> 200 57 409 57 598 56<378 378>
VStem: 54 58<106.5 158 106 244> 487 59<262.5 269.5>
LayerCount: 2
Fore
SplineSet
134 257 m 1
 487 257 l 1
 487 282 483 394 341 394 c 0
 224 394 155 316 134 257 c 1
118 201 m 1
 112 183 112 166 112 150 c 0
 112 62 213 40 284 40 c 0
 333 40 417 60 506 105 c 1
 513 51 l 1
 439 14 349 -15 264 -15 c 0
 112 -15 54 59 54 154 c 0
 54 334 192 451 352 451 c 0
 488 451 546 366 546 273 c 0
 546 252 542 221 538 199 c 1
 118 201 l 1
167 498 m 1
 349 654 l 1
 429 654 l 1
 546 498 l 1
 501 480 l 1
 378 598 l 1
 205 480 l 1
 167 498 l 1
EndSplineSet
EndChar

StartChar: edieresis
Encoding: 308 235 168
Width: 600
Flags: HMW
HStem: -15 50 199 58<134 538> 394 21G<282.5 412> 530 115<242 355 267 330 267 395 419 482>
VStem: 54 58<106.5 158 106 244> 242 88<530 530> 395 87<530 530> 487 59<262.5 269.5>
LayerCount: 2
Fore
SplineSet
134 257 m 1
 487 257 l 1
 487 282 483 394 341 394 c 0
 224 394 155 316 134 257 c 1
118 201 m 1
 112 183 112 166 112 150 c 0
 112 62 213 40 284 40 c 0
 333 40 417 60 506 105 c 1
 513 51 l 1
 439 14 349 -15 264 -15 c 0
 112 -15 54 59 54 154 c 0
 54 334 192 451 352 451 c 0
 488 451 546 366 546 273 c 0
 546 252 542 221 538 199 c 1
 118 201 l 1
242 530 m 1
 267 645 l 1
 355 645 l 1
 330 530 l 1
 242 530 l 1
395 530 m 1
 419 645 l 1
 507 645 l 1
 482 530 l 1
 395 530 l 1
EndSplineSet
EndChar

StartChar: igrave
Encoding: 309 236 169
Width: 600
Flags: HMW
HStem: 0 55<90 257 309 463 463 463> 382 55<193 318 318 318> 652 20G<285 285>
LayerCount: 2
Fore
SplineSet
80 0 m 1
 463 0 l 1
 475 55 l 1
 309 55 l 1
 380 437 l 1
 193 437 l 1
 183 382 l 1
 318 382 l 1
 257 55 l 1
 90 55 l 1
 80 0 l 1
238 596 m 1
 285 672 l 1
 510 526 l 1
 493 494 l 1
 238 596 l 1
EndSplineSet
EndChar

StartChar: iacute
Encoding: 310 237 170
Width: 600
Flags: HMW
HStem: 0 55<80 257 90 257 309 463> 382 55<193 318 183 380> 652 20G<493 493>
LayerCount: 2
Fore
SplineSet
245 494 m 1
 228 526 l 1
 493 672 l 1
 520 596 l 1
 245 494 l 1
80 0 m 1
 90 55 l 1
 257 55 l 1
 318 382 l 1
 183 382 l 1
 193 437 l 1
 380 437 l 1
 309 55 l 1
 475 55 l 1
 463 0 l 1
 80 0 l 1
EndSplineSet
EndChar

StartChar: icircumflex
Encoding: 311 238 171
Width: 600
Flags: HMW
HStem: 0 55<90 257 309 463 463 463> 382 55<193 318 318 318> 634 20G<338 415 415 415>
LayerCount: 2
Fore
SplineSet
80 0 m 1
 463 0 l 1
 475 55 l 1
 309 55 l 1
 380 437 l 1
 193 437 l 1
 183 382 l 1
 318 382 l 1
 257 55 l 1
 90 55 l 1
 80 0 l 1
162 498 m 1
 338 654 l 1
 415 654 l 1
 528 498 l 1
 483 480 l 1
 366 598 l 1
 198 480 l 1
 162 498 l 1
EndSplineSet
EndChar

StartChar: idieresis
Encoding: 312 239 172
Width: 600
Flags: HMW
HStem: 0 55<90 257 309 463 463 463> 382 55<193 318 318 318> 520 115<250 366 276 341 276 408 433 497>
LayerCount: 2
Fore
SplineSet
80 0 m 1
 463 0 l 1
 475 55 l 1
 309 55 l 1
 380 437 l 1
 193 437 l 1
 183 382 l 1
 318 382 l 1
 257 55 l 1
 90 55 l 1
 80 0 l 1
250 520 m 1
 276 635 l 1
 366 635 l 1
 341 520 l 1
 250 520 l 1
408 520 m 1
 433 635 l 1
 522 635 l 1
 497 520 l 1
 408 520 l 1
EndSplineSet
EndChar

StartChar: eth
Encoding: 313 240 173
Width: 600
Flags: HMW
HStem: -15 51<211 322 211 359> 342 52<261.5 324 324 331> 609 20G<537 537>
VStem: 31 59<114 206.5 114 206.5> 501 67<211.5 266.5>
LayerCount: 2
Fore
SplineSet
90 149 m 0
 90 79 161 36 261 36 c 0
 383 36 501 133 501 238 c 0
 501 295 463 342 331 342 c 2
 324 342 l 2
 199 342 90 264 90 149 c 0
263 444 m 1
 245 488 l 1
 335 532 l 1
 305 544 269 562 236 565 c 1
 281 611 l 1
 327 606 368 583 405 565 c 1
 537 629 l 1
 556 584 l 1
 453 534 l 1
 537 470 568 370 568 292 c 0
 568 131 468 -15 250 -15 c 0
 121 -15 31 39 31 144 c 0
 31 269 135 394 345 394 c 0
 401 394 464 375 498 344 c 1
 495 358 461 457 390 503 c 1
 263 444 l 1
EndSplineSet
EndChar

StartChar: ntilde
Encoding: 314 241 174
Width: 600
Flags: HMW
HStem: 0 52<-1 95 10 95 151 225 344 428 484 556> 357 53<85 159 74 226> 490 48 554 52
VStem: 95 56<52 52> 428 56<52 52>
LayerCount: 2
Fore
SplineSet
-1 0 m 1
 10 52 l 1
 95 52 l 1
 159 357 l 1
 74 357 l 1
 85 410 l 1
 226 410 l 1
 211 341 l 1
 273 385 350 423 421 423 c 0
 504 423 540 388 539 330 c 0
 539 319 537 307 534 294 c 2
 484 52 l 1
 568 52 l 1
 556 0 l 1
 333 0 l 1
 344 52 l 1
 428 52 l 1
 479 293 l 2
 481 302 481 311 481 318 c 0
 481 362 432 371 394 371 c 0
 331 371 252 327 199 284 c 1
 151 52 l 1
 237 52 l 1
 225 0 l 1
 -1 0 l 1
177 514 m 1
 212 578 273 616 326 616 c 0
 367 616 386 596 403 578 c 0
 418 563 431 548 455 548 c 0
 493 548 538 589 552 613 c 1
 602 601 l 1
 572 546 513 500 449 500 c 0
 414 500 395 514 379 529 c 0
 361 546 345 564 314 564 c 0
 278 564 232 515 225 500 c 1
 177 514 l 1
EndSplineSet
EndChar

StartChar: ograve
Encoding: 315 242 175
Width: 600
Flags: HMW
HStem: -15 55<212.5 328.5 212.5 344> 392 56<273 399> 652 20G<280 280>
VStem: 57 62<142 232 142 247.5> 482 61<195.5 275>
LayerCount: 2
Fore
SplineSet
119 179 m 0
 119 105 155 40 270 40 c 0
 387 40 482 146 482 245 c 0
 482 305 464 392 334 392 c 0
 212 392 119 285 119 179 c 0
57 164 m 0
 57 331 194 448 345 448 c 0
 495 448 543 351 543 267 c 0
 543 113 426 -15 262 -15 c 0
 133 -15 57 57 57 164 c 0
233 595 m 1
 280 672 l 1
 503 522 l 1
 488 491 l 1
 233 595 l 1
EndSplineSet
EndChar

StartChar: oacute
Encoding: 316 243 176
Width: 600
Flags: HMW
HStem: -15 55<212.5 328.5 212.5 344> 392 56<273 399> 652 20G<526 526>
VStem: 57 62<142 232 142 247.5> 482 61<195.5 275>
LayerCount: 2
Fore
SplineSet
248 491 m 1
 233 522 l 1
 526 672 l 1
 542 586 l 1
 248 491 l 1
119 179 m 0
 119 105 155 40 270 40 c 0
 387 40 482 146 482 245 c 0
 482 305 464 392 334 392 c 0
 212 392 119 285 119 179 c 0
57 164 m 0
 57 331 194 448 345 448 c 0
 495 448 543 351 543 267 c 0
 543 113 426 -15 262 -15 c 0
 133 -15 57 57 57 164 c 0
EndSplineSet
EndChar

StartChar: ocircumflex
Encoding: 317 244 177
Width: 600
Flags: HMW
HStem: -15 55<212.5 328.5 212.5 344> 392 56<273 399> 634 20G<346 422 422 422>
VStem: 57 62<142 232 142 247.5> 482 61<195.5 275>
LayerCount: 2
Fore
SplineSet
119 179 m 0
 119 105 155 40 270 40 c 0
 387 40 482 146 482 245 c 0
 482 305 464 392 334 392 c 0
 212 392 119 285 119 179 c 0
57 164 m 0
 57 331 194 448 345 448 c 0
 495 448 543 351 543 267 c 0
 543 113 426 -15 262 -15 c 0
 133 -15 57 57 57 164 c 0
175 497 m 1
 346 654 l 1
 422 654 l 1
 534 497 l 1
 490 479 l 1
 374 598 l 1
 210 479 l 1
 175 497 l 1
EndSplineSet
EndChar

StartChar: otilde
Encoding: 318 245 178
Width: 600
Flags: HMW
HStem: -15 55<212.5 328.5 212.5 344> 392 56<273 399> 510 50<414 443 414 445.5> 577 49<270 297>
VStem: 57 62<142 232 142 247.5> 482 61<195.5 275>
LayerCount: 2
Fore
SplineSet
119 179 m 0
 119 105 155 40 270 40 c 0
 387 40 482 146 482 245 c 0
 482 305 464 392 334 392 c 0
 212 392 119 285 119 179 c 0
57 164 m 0
 57 331 194 448 345 448 c 0
 495 448 543 351 543 267 c 0
 543 113 426 -15 262 -15 c 0
 133 -15 57 57 57 164 c 0
152 525 m 1
 186 590 245 626 295 626 c 0
 329 626 350 606 372 587 c 0
 387 574 403 560 425 560 c 0
 461 560 501 598 515 622 c 1
 563 613 l 1
 534 558 476 510 415 510 c 0
 384 510 364 529 344 546 c 0
 326 562 309 577 285 577 c 0
 249 577 206 529 200 514 c 1
 152 525 l 1
EndSplineSet
EndChar

StartChar: odieresis
Encoding: 319 246 179
Width: 600
Flags: HMW
HStem: -15 55<212.5 328.5 212.5 344> 392 56<273 399> 520 115<240 344 263 321 263 381 404 460>
VStem: 57 62<142 232 142 247.5> 482 61<195.5 275>
LayerCount: 2
Fore
SplineSet
119 179 m 0
 119 105 155 40 270 40 c 0
 387 40 482 146 482 245 c 0
 482 305 464 392 334 392 c 0
 212 392 119 285 119 179 c 0
57 164 m 0
 57 331 194 448 345 448 c 0
 495 448 543 351 543 267 c 0
 543 113 426 -15 262 -15 c 0
 133 -15 57 57 57 164 c 0
240 520 m 1
 263 635 l 1
 344 635 l 1
 321 520 l 1
 240 520 l 1
381 520 m 1
 404 635 l 1
 484 635 l 1
 460 520 l 1
 381 520 l 1
EndSplineSet
EndChar

StartChar: divide
Encoding: 320 247 180
Width: 600
Flags: HMW
HStem: 38 21G<251.5 277.5> 231 59<81 518 92 507> 447 20G<322 346>
LayerCount: 2
Fore
SplineSet
227 82 m 0
 227 112 255 137 281 137 c 0
 303 137 317 119 317 97 c 0
 317 67 291 38 264 38 c 0
 239 38 227 59 227 82 c 0
81 231 m 1
 92 290 l 1
 518 290 l 1
 507 231 l 1
 81 231 l 1
281 410 m 0
 281 440 309 467 335 467 c 0
 357 467 371 447 371 425 c 0
 371 395 345 366 318 366 c 0
 293 366 281 387 281 410 c 0
EndSplineSet
EndChar

StartChar: oslash
Encoding: 249 248 181
Width: 600
Flags: HMW
HStem: -17 21G<52 52> -12 56<247 321> 393 55<279 346.5> 431 20G<548 548>
LayerCount: 2
Fore
SplineSet
129 110 m 1
 437 361 l 1
 405 386 362 393 331 393 c 0
 227 393 132 325 112 218 c 0
 105 178 110 138 129 110 c 1
163 73 m 1
 191 52 228 44 266 44 c 0
 398 44 455 137 469 172 c 2
 482 218 l 2
 490 256 486 293 469 322 c 1
 163 73 l 1
24 24 m 1
 83 71 l 1
 56 109 50 164 59 218 c 0
 83 343 189 448 342 448 c 0
 398 448 447 433 485 400 c 1
 548 451 l 1
 576 410 l 1
 515 361 l 1
 540 323 545 271 535 219 c 0
 508 70 385 -12 257 -12 c 0
 207 -12 154 0 116 34 c 1
 52 -17 l 1
 24 24 l 1
EndSplineSet
EndChar

StartChar: ugrave
Encoding: 321 249 182
Width: 600
Flags: HMW
HStem: -15 54<214.5 243.5> -4 55<454 524> 380 56<64 208 74 144 391 463> 652 20G<273 273>
VStem: 93 59<56 124.5>
LayerCount: 2
Fore
SplineSet
64 380 m 1
 74 436 l 1
 208 436 l 1
 155 154 l 2
 153 141 152 130 152 119 c 0
 153 68 184 39 245 39 c 0
 308 39 370 103 418 153 c 1
 463 380 l 1
 382 380 l 1
 391 436 l 1
 526 436 l 1
 454 51 l 1
 535 51 l 1
 524 -4 l 1
 390 -4 l 1
 405 74 l 1
 317 0 263 -15 224 -15 c 0
 149 -15 93 21 93 91 c 0
 93 102 92 114 95 127 c 2
 144 380 l 1
 64 380 l 1
225 598 m 1
 273 672 l 1
 505 526 l 1
 489 492 l 1
 225 598 l 1
EndSplineSet
EndChar

StartChar: uacute
Encoding: 322 250 183
Width: 600
Flags: HMW
HStem: -15 54<203.5 232.5> -4 55<443 513> 380 56<53 197 63 133 380 452> 652 20G<527 527>
VStem: 82 59<56 124.5>
LayerCount: 2
Fore
SplineSet
53 380 m 1
 63 436 l 1
 197 436 l 1
 144 154 l 2
 142 141 141 130 141 119 c 0
 142 68 173 39 234 39 c 0
 297 39 359 103 407 153 c 1
 452 380 l 1
 371 380 l 1
 380 436 l 1
 515 436 l 1
 443 51 l 1
 524 51 l 1
 513 -4 l 1
 379 -4 l 1
 394 74 l 1
 306 0 252 -15 213 -15 c 0
 138 -15 82 21 82 91 c 0
 82 102 81 114 84 127 c 2
 133 380 l 1
 53 380 l 1
227 493 m 1
 220 532 l 1
 527 672 l 1
 547 597 l 1
 227 493 l 1
EndSplineSet
EndChar

StartChar: ucircumflex
Encoding: 323 251 184
Width: 600
Flags: HMW
HStem: -15 54<214.5 243.5> -4 55<454 524> 380 56<64 208 74 144 391 463> 654 20G<342 420 420 420>
VStem: 93 59<56 124.5>
LayerCount: 2
Fore
SplineSet
64 380 m 1
 74 436 l 1
 208 436 l 1
 155 154 l 2
 153 141 152 130 152 119 c 0
 153 68 184 39 245 39 c 0
 308 39 370 103 418 153 c 1
 463 380 l 1
 382 380 l 1
 391 436 l 1
 526 436 l 1
 454 51 l 1
 535 51 l 1
 524 -4 l 1
 390 -4 l 1
 405 74 l 1
 317 0 263 -15 224 -15 c 0
 149 -15 93 21 93 91 c 0
 93 102 92 114 95 127 c 2
 144 380 l 1
 64 380 l 1
165 516 m 1
 342 674 l 1
 420 674 l 1
 535 516 l 1
 490 499 l 1
 370 618 l 1
 201 499 l 1
 165 516 l 1
EndSplineSet
EndChar

StartChar: udieresis
Encoding: 324 252 185
Width: 600
Flags: HMW
HStem: -15 54<214.5 243.5> -4 55<454 524> 380 56<64 208 74 144 391 463> 529 116<234 341 258 318 258 380 403 461>
VStem: 93 59<56 124.5>
LayerCount: 2
Fore
SplineSet
64 380 m 1
 74 436 l 1
 208 436 l 1
 155 154 l 2
 153 141 152 130 152 119 c 0
 153 68 184 39 245 39 c 0
 308 39 370 103 418 153 c 1
 463 380 l 1
 382 380 l 1
 391 436 l 1
 526 436 l 1
 454 51 l 1
 535 51 l 1
 524 -4 l 1
 390 -4 l 1
 405 74 l 1
 317 0 263 -15 224 -15 c 0
 149 -15 93 21 93 91 c 0
 93 102 92 114 95 127 c 2
 144 380 l 1
 64 380 l 1
234 529 m 1
 258 645 l 1
 341 645 l 1
 318 529 l 1
 234 529 l 1
380 529 m 1
 403 645 l 1
 485 645 l 1
 461 529 l 1
 380 529 l 1
EndSplineSet
EndChar

StartChar: yacute
Encoding: 325 253 186
Width: 600
Flags: HMW
HStem: -157 54<-31 85 149 228 -43 85> 375 54<39 100 28 242 164 164 164 232 454 503 567 567 567 634>
VStem: 85 64<-103 -103> 503 64<375 375>
LayerCount: 2
Fore
SplineSet
-31 -103 m 1
 85 -103 l 1
 223 53 l 1
 100 375 l 1
 28 375 l 1
 39 429 l 1
 242 429 l 1
 232 375 l 1
 164 375 l 1
 265 106 l 1
 503 375 l 1
 444 375 l 1
 454 429 l 1
 644 429 l 1
 634 375 l 1
 567 375 l 1
 149 -103 l 1
 239 -103 l 1
 228 -157 l 1
 -43 -157 l 1
 -31 -103 l 1
220 501 m 1
 214 532 l 1
 526 672 l 1
 547 601 l 1
 220 501 l 1
EndSplineSet
EndChar

StartChar: thorn
Encoding: 326 254 187
Width: 600
Flags: HMW
HStem: -157 53<-3 81 136 280 -14 81> 16 54<301 391.5 301 412> 403 54<392.5 475.5> 576 53<149 221 137 287>
VStem: 81 55<-104 -104> 558 57<216 295.5>
LayerCount: 2
Fore
SplineSet
212 247 m 0
 191 147 254 70 348 70 c 0
 435 70 558 149 558 267 c 0
 558 324 532 403 419 403 c 0
 310 403 230 334 212 247 c 0
-3 -104 m 1
 81 -104 l 1
 221 576 l 1
 137 576 l 1
 149 629 l 1
 287 629 l 1
 238 386 l 1
 283 431 349 457 436 457 c 0
 531 457 615 395 615 291 c 0
 615 141 483 16 341 16 c 0
 249 16 203 66 179 104 c 1
 136 -104 l 1
 291 -104 l 1
 280 -157 l 1
 -14 -157 l 1
 -3 -104 l 1
EndSplineSet
EndChar

StartChar: ydieresis
Encoding: 327 255 188
Width: 600
Flags: HMW
HStem: -157 50<-31 85 148 227 -43 85> 357 49<39 100 29 242 163 163 163 232 455 502 566 566 566 633> 483 112
LayerCount: 2
Fore
SplineSet
-31 -107 m 1
 85 -107 l 1
 223 49 l 1
 100 357 l 1
 29 357 l 1
 39 406 l 1
 242 406 l 1
 232 357 l 1
 163 357 l 1
 266 98 l 1
 502 357 l 1
 443 357 l 1
 455 406 l 1
 644 406 l 1
 633 357 l 1
 566 357 l 1
 148 -107 l 1
 239 -107 l 1
 227 -157 l 1
 -43 -157 l 1
 -31 -107 l 1
227 493 m 1
 253 605 l 1
 343 605 l 1
 318 493 l 1
 227 493 l 1
385 493 m 1
 410 605 l 1
 498 605 l 1
 473 493 l 1
 385 493 l 1
EndSplineSet
EndChar

StartChar: Idot
Encoding: 328 304 189
Width: 600
Flags: HMW
HStem: 0 54<36 224 47 224 283 447> 480 55<156 319 145 563 378 378 378 551> 603 113<323 439 349 414>
LayerCount: 2
Fore
SplineSet
323 603 m 1
 349 716 l 1
 439 716 l 1
 414 603 l 1
 323 603 l 1
36 0 m 1
 47 54 l 1
 224 54 l 1
 319 480 l 1
 145 480 l 1
 156 535 l 1
 563 535 l 1
 551 480 l 1
 378 480 l 1
 283 54 l 1
 460 54 l 1
 447 0 l 1
 36 0 l 1
EndSplineSet
EndChar

StartChar: dotlessi
Encoding: 245 305 190
Width: 600
Flags: HMW
HStem: 0 54<90 279 101 279 335 499> 372 54<209 343 199 408>
VStem: 279 56<54 54>
LayerCount: 2
Fore
SplineSet
90 0 m 1
 101 54 l 1
 279 54 l 1
 343 372 l 1
 199 372 l 1
 209 426 l 1
 408 426 l 1
 335 54 l 1
 510 54 l 1
 499 0 l 1
 90 0 l 1
EndSplineSet
EndChar

StartChar: IJ
Encoding: 329 306 191
Width: 600
Flags: HMW
HStem: -18 21G<317.5 414.5> -17 54<-35 46 -23 46 105 159> 508 54<90 143 78 276 202 202 202 264>
VStem: 143 59<508 508> 523 54<507 507>
LayerCount: 2
Fore
SplineSet
231 58 m 1
 263 255 l 1
 319 255 l 1
 304 164 l 2
 281 42 329 36 355 36 c 0
 440 36 443 98 459 179 c 2
 523 507 l 1
 414 507 l 1
 425 562 l 1
 635 562 l 1
 624 507 l 1
 577 507 l 1
 507 151 l 2
 491 69 478 -18 351 -18 c 0
 284 -18 255 22 231 58 c 1
-35 -17 m 1
 -23 37 l 1
 46 37 l 1
 143 508 l 1
 78 508 l 1
 90 562 l 1
 276 562 l 1
 264 508 l 1
 202 508 l 1
 105 37 l 1
 171 37 l 1
 159 -17 l 1
 -35 -17 l 1
EndSplineSet
EndChar

StartChar: ij
Encoding: 330 307 192
Width: 600
Flags: HMW
HStem: -157 54 393 57 539 118<195 300 222 274 518 570>
LayerCount: 2
Fore
SplineSet
195 539 m 1
 222 657 l 1
 300 657 l 1
 274 539 l 1
 195 539 l 1
14 -101 m 1
 64 -101 l 1
 173 395 l 1
 119 395 l 1
 130 450 l 1
 300 450 l 1
 288 395 l 1
 232 395 l 1
 123 -101 l 1
 184 -101 l 1
 171 -155 l 1
 3 -155 l 1
 14 -101 l 1
248 -141 m 1
 269 -91 l 1
 293 -98 308 -104 339 -103 c 0
 386 -101 394 -67 417 26 c 2
 499 393 l 1
 415 393 l 1
 426 445 l 1
 571 445 l 1
 476 12 l 1
 442 -114 435 -157 328 -157 c 0
 299 -157 277 -151 248 -141 c 1
491 539 m 1
 518 657 l 1
 596 657 l 1
 570 539 l 1
 491 539 l 1
EndSplineSet
EndChar

StartChar: Lslash
Encoding: 232 321 193
Width: 600
Flags: HMW
HStem: 0 54<20 139 31 139 194 480> 508 54<133 229 121 423 285 285 285 412>
LayerCount: 2
Fore
SplineSet
20 0 m 1
 31 54 l 1
 139 54 l 1
 171 218 l 1
 80 184 l 1
 91 238 l 1
 182 272 l 1
 229 508 l 1
 121 508 l 1
 133 562 l 1
 423 562 l 1
 412 508 l 1
 285 508 l 1
 242 294 l 1
 433 365 l 1
 422 310 l 1
 231 240 l 1
 194 54 l 1
 480 54 l 1
 524 253 l 1
 580 253 l 1
 529 0 l 1
 20 0 l 1
EndSplineSet
EndChar

StartChar: lslash
Encoding: 248 322 194
Width: 600
Flags: HMW
HStem: 0 55<56 263 68 263 326 507> 574 55<197 376 185 449>
LayerCount: 2
Fore
SplineSet
56 0 m 1
 68 55 l 1
 263 55 l 1
 313 278 l 1
 155 225 l 1
 166 279 l 1
 325 333 l 1
 376 574 l 1
 185 574 l 1
 197 629 l 1
 449 629 l 1
 391 355 l 1
 544 408 l 1
 532 353 l 1
 378 300 l 1
 326 55 l 1
 520 55 l 1
 507 0 l 1
 56 0 l 1
EndSplineSet
EndChar

StartChar: OE
Encoding: 234 338 195
Width: 600
Flags: HMW
HStem: 0 54<174.5 208 208 247 302 453> 253 55<352 420 341 431> 508 54<336 336 391 541 391 391>
VStem: -6 56<167.5 304 167.5 314>
LayerCount: 2
Fore
SplineSet
247 54 m 1
 336 508 l 1
 202 509 50 389 50 219 c 0
 50 116 102 54 247 54 c 1
302 54 m 1
 453 54 l 1
 473 152 l 1
 528 152 l 1
 497 0 l 1
 208 0 l 2
 50 0 -6 96 -6 207 c 0
 -6 421 163 562 334 562 c 2
 607 562 l 1
 577 408 l 1
 522 408 l 1
 541 508 l 1
 391 508 l 1
 352 308 l 1
 431 308 l 1
 442 363 l 1
 496 363 l 1
 463 197 l 1
 409 197 l 1
 420 253 l 1
 341 253 l 1
 302 54 l 1
EndSplineSet
EndChar

StartChar: oe
Encoding: 250 339 196
Width: 600
Flags: HMW
HStem: -15 55<121.5 180 393.5 423.5> 204 54<341 525 341 566 330 525> 386 55<173.5 265 155.5 265.5 441.5 503>
VStem: 19 55<112 178.5> 283 47 525 55<258 330.5>
LayerCount: 2
Fore
SplineSet
74 135 m 0
 74 89 83 40 145 40 c 0
 249 40 271 157 283 225 c 0
 296 288 309 386 222 386 c 0
 125 386 74 229 74 135 c 0
341 258 m 1
 525 258 l 1
 529 308 538 386 468 386 c 0
 408 386 357 322 341 258 c 1
281 72 m 1
 268 49 224 -15 136 -15 c 0
 107 -15 19 -4 19 116 c 0
 19 241 78 441 233 441 c 0
 297 441 331 409 342 362 c 1
 363 392 407 441 476 441 c 0
 561 441 580 368 580 293 c 0
 580 258 575 235 566 204 c 1
 330 204 l 1
 326 189 323 163 323 149 c 0
 323 74 362 40 425 40 c 0
 460 40 501 54 531 63 c 1
 531 8 l 1
 492 -3 445 -15 402 -15 c 0
 328 -15 297 20 281 72 c 1
EndSplineSet
EndChar

StartChar: Scedilla
Encoding: 331 350 197
Width: 600
Flags: HMW
HStem: -151 21G<227 268> 69 59<259 259> 290 57 513 61<307.5 364.5> 560 20G<525 587 587 587>
VStem: 96 67<384 459 384 469.5> 479 68<175.5 240.5>
LayerCount: 2
Fore
SplineSet
13 68 m 1
 52 256 l 1
 116 256 l 1
 105 203 l 1
 153 162 209 128 284 128 c 0
 337 128 479 130 479 216 c 0
 479 265 423 287 339 290 c 0
 235 294 96 294 96 424 c 0
 96 515 212 574 342 574 c 0
 407 574 468 554 516 525 c 1
 525 580 l 1
 587 580 l 1
 551 403 l 1
 489 403 l 1
 502 460 l 1
 458 489 397 513 332 513 c 0
 283 513 163 489 163 429 c 0
 163 339 302 351 381 347 c 0
 468 342 547 297 547 229 c 0
 547 122 460 75 320 69 c 1
 317 51 l 1
 341 40 354 4 354 -23 c 0
 354 -109 292 -151 244 -151 c 0
 210 -151 183 -132 177 -123 c 1
 208 -64 l 1
 220 -73 238 -77 255 -77 c 0
 290 -77 297 -47 297 -33 c 0
 297 -19 284 -8 268 -8 c 0
 259 -8 249 -9 240 -14 c 1
 259 69 l 1
 182 75 137 106 90 128 c 1
 78 68 l 1
 13 68 l 1
EndSplineSet
EndChar

StartChar: scedilla
Encoding: 332 351 198
Width: 600
Flags: HMW
HStem: -151 21G<235 271> 28 47<263 263> 206 46 387 50<306.5 356.5> 421 20G<499 553 553 553>
VStem: 118 61<282.5 343.5 282.5 352> 459 60<113.5 157 113.5 166>
LayerCount: 2
Fore
SplineSet
47 27 m 1
 79 179 l 1
 136 179 l 1
 126 136 l 1
 169 103 219 75 285 75 c 0
 332 75 459 77 459 146 c 0
 459 186 408 204 334 206 c 0
 242 209 118 209 118 315 c 0
 118 389 222 437 337 437 c 0
 394 437 449 420 491 397 c 1
 499 441 l 1
 553 441 l 1
 522 298 l 1
 468 298 l 1
 479 344 l 1
 440 368 385 387 328 387 c 0
 285 387 179 368 179 319 c 0
 179 246 301 255 371 252 c 0
 449 248 520 212 519 157 c 0
 519 70 442 33 317 28 c 1
 315 13 l 1
 336 4 346 -27 347 -49 c 0
 347 -118 292 -151 250 -151 c 0
 220 -151 196 -136 191 -128 c 1
 218 -81 l 1
 229 -88 245 -91 260 -91 c 0
 291 -91 297 -67 297 -56 c 0
 297 -44 283 -35 268 -35 c 0
 261 -35 254 -37 247 -40 c 1
 263 28 l 1
 197 37 155 58 113 75 c 1
 102 27 l 1
 47 27 l 1
EndSplineSet
EndChar

StartChar: Scaron
Encoding: 333 352 199
Width: 600
Flags: HMW
HStem: -20 55<240 321.5> 524 55<280.5 357> 579 46<332 332 332 365.5> 785 20G<254 254 557 557>
VStem: 105 60<367.5 447 367.5 460.5> 440 61<121 175>
LayerCount: 2
Fore
SplineSet
332 625 m 1
 208 786 l 1
 254 805 l 1
 389 684 l 1
 557 805 l 1
 598 787 l 1
 415 625 l 1
 332 625 l 1
1 -10 m 1
 37 173 l 1
 94 173 l 1
 80 103 l 1
 123 63 200 35 265 35 c 0
 379 35 440 88 440 154 c 0
 440 196 377 227 310 241 c 0
 229 259 105 282 105 405 c 0
 105 516 180 579 339 579 c 0
 392 579 462 558 496 530 c 1
 504 570 l 1
 560 570 l 1
 526 382 l 1
 467 382 l 1
 484 463 l 1
 452 498 384 524 330 524 c 0
 231 524 165 485 165 409 c 0
 165 326 267 313 337 296 c 0
 418 276 501 247 501 156 c 0
 501 15 380 -20 263 -20 c 0
 217 -20 123 -3 69 41 c 1
 58 -10 l 1
 1 -10 l 1
EndSplineSet
EndChar

StartChar: scaron
Encoding: 334 353 200
Width: 600
Flags: HMW
HStem: -15 55<32 99 233.5 289> 40 145 185 52 237 150 387 55<286.5 336> 442 49<305 305 305 344.5> 649 20G
VStem: 104 57<270.5 338 270.5 347.5> 434 59<80.5 130 78.5 141>
LayerCount: 2
Fore
SplineSet
32 -15 m 1
 66 156 l 1
 121 156 l 1
 112 107 l 1
 153 69 201 40 266 40 c 0
 312 40 434 42 434 119 c 0
 434 163 387 182 314 185 c 0
 224 189 104 189 104 306 c 0
 104 389 204 442 316 442 c 0
 373 442 425 424 466 397 c 1
 475 447 l 1
 529 447 l 1
 497 287 l 1
 443 287 l 1
 454 338 l 1
 416 365 364 387 308 387 c 0
 265 387 161 365 161 311 c 0
 161 230 282 241 350 237 c 0
 425 233 494 191 493 130 c 0
 493 27 406 -15 268 -15 c 0
 186 -15 144 17 99 40 c 1
 88 -15 l 1
 32 -15 l 1
305 491 m 1
 184 648 l 1
 229 668 l 1
 360 557 l 1
 529 669 l 1
 568 649 l 1
 387 491 l 1
 305 491 l 1
EndSplineSet
EndChar

StartChar: Ydieresis
Encoding: 335 376 201
Width: 600
Flags: HMW
HStem: 0 54<41 179 53 179 235 350> 511 54<30 89 19 233 151 151 151 222 383 442 503 503 503 570> 664 117<209 321 234 294 234 359 385 446>
LayerCount: 2
Fore
SplineSet
41 0 m 1
 53 54 l 1
 179 54 l 1
 213 229 l 1
 89 511 l 1
 19 511 l 1
 30 565 l 1
 233 565 l 1
 222 511 l 1
 151 511 l 1
 252 283 l 1
 442 511 l 1
 372 511 l 1
 383 565 l 1
 581 565 l 1
 570 511 l 1
 503 511 l 1
 269 229 l 1
 235 54 l 1
 361 54 l 1
 350 0 l 1
 41 0 l 1
209 664 m 1
 234 781 l 1
 321 781 l 1
 294 664 l 1
 209 664 l 1
359 664 m 1
 385 781 l 1
 471 781 l 1
 446 664 l 1
 359 664 l 1
EndSplineSet
EndChar

StartChar: Zcaron
Encoding: 336 381 202
Width: 600
Flags: HMW
HStem: 0 55<103 407 103 450> 518 55<200 473 200 200> 573 54<328 328 328 406> 627 58<328 381 381 381 381 406>
VStem: 114 56<380 380> 439 53<207 207>
LayerCount: 2
Fore
SplineSet
328 627 m 1
 212 786 l 1
 256 805 l 1
 381 685 l 1
 540 804 l 1
 578 786 l 1
 406 627 l 1
 328 627 l 1
21 0 m 1
 31 54 l 1
 473 518 l 1
 200 518 l 1
 170 380 l 1
 114 380 l 1
 154 573 l 1
 556 573 l 1
 546 521 l 1
 103 55 l 1
 407 55 l 1
 439 207 l 1
 492 207 l 1
 450 0 l 1
 21 0 l 1
EndSplineSet
EndChar

StartChar: zcaron
Encoding: 337 382 203
Width: 600
Flags: HMW
HStem: 0 55<125 400 125 444> 379 55<182 439 182 182> 434 56<304 304 304 384> 649 20G
LayerCount: 2
Fore
SplineSet
37 0 m 1
 47 52 l 1
 439 379 l 1
 182 379 l 1
 162 280 l 1
 108 280 l 1
 138 434 l 1
 528 434 l 1
 518 383 l 1
 125 55 l 1
 400 55 l 1
 420 157 l 1
 475 157 l 1
 444 0 l 1
 37 0 l 1
304 490 m 1
 185 648 l 1
 229 668 l 1
 355 546 l 1
 524 669 l 1
 562 649 l 1
 384 490 l 1
 304 490 l 1
EndSplineSet
EndChar

StartChar: florin
Encoding: 166 402 204
Width: 600
Flags: HMW
HStem: -143 59<-12 42.5 -12 64.5> 359 58<223 314 206 336 223 372 393 482> 570 52<540 564.5>
LayerCount: 2
Fore
SplineSet
-12 -84 m 1
 97 -84 151 -71 191 36 c 2
 314 359 l 1
 206 359 l 1
 223 417 l 1
 336 417 l 1
 390 558 401 622 540 622 c 0
 569 622 607 622 649 622 c 1
 613 566 l 1
 594 567 574 570 555 570 c 0
 452 570 440 533 393 417 c 1
 501 417 l 1
 482 359 l 1
 372 359 l 1
 247 30 l 2
 197 -103 177 -143 -48 -143 c 1
 -12 -84 l 1
EndSplineSet
EndChar

StartChar: Gcaron
Encoding: 338 486 205
Width: 600
Flags: HMW
HStem: -18 55<198 291.5 198 291.5> 37 165<289 289 289 291.5> 202 55<289 570 300 452 507 507 507 559> 525 55<283.5 375.5> 580 47<329 329 329 375.5> 785 20G<257 257>
VStem: 19 57<162 320>
LayerCount: 2
Fore
SplineSet
329 627 m 1
 213 786 l 1
 257 805 l 1
 382 685 l 1
 541 804 l 1
 579 786 l 1
 407 627 l 1
 329 627 l 1
289 202 m 1
 300 257 l 1
 570 257 l 1
 559 202 l 1
 507 202 l 1
 474 28 l 1
 406 2 328 -18 255 -18 c 0
 86 -18 19 88 19 204 c 0
 19 436 170 580 341 580 c 0
 410 580 472 555 513 514 c 1
 526 580 l 1
 581 580 l 1
 539 366 l 1
 483 366 l 1
 498 442 l 1
 463 490 410 525 341 525 c 0
 226 525 76 434 76 210 c 0
 76 114 132 37 264 37 c 0
 319 37 358 49 427 70 c 1
 452 202 l 1
 289 202 l 1
EndSplineSet
EndChar

StartChar: gcaron
Encoding: 339 487 206
Width: 600
Flags: HMW
HStem: -157 50<174 263.5 170.5 277> -107 164<170.5 259.5 156.5 263.5> 57 51<193 259.5> 390 51<247.5 347.5 228.5 355> 441 49<307 307 307 347.5> 649 20G
VStem: 32 56<190 271.5 190 271.5>
LayerCount: 2
Fore
SplineSet
307 490 m 1
 188 648 l 1
 232 668 l 1
 358 546 l 1
 527 669 l 1
 565 649 l 1
 387 490 l 1
 307 490 l 1
88 222 m 0
 88 158 148 108 238 108 c 0
 342 108 444 168 444 263 c 0
 444 327 412 390 298 390 c 0
 197 390 88 321 88 222 c 0
23 -79 m 1
 73 -90 137 -107 204 -107 c 0
 323 -107 380 -79 398 8 c 2
 417 115 l 1
 367 70 292 57 227 57 c 0
 86 57 32 137 32 219 c 0
 32 324 149 441 308 441 c 0
 387 441 443 400 469 366 c 1
 484 429 l 1
 598 429 l 1
 588 378 l 1
 528 378 l 1
 450 -4 l 2
 427 -105 339 -157 215 -157 c 0
 133 -157 52 -140 2 -129 c 1
 23 -79 l 1
EndSplineSet
EndChar

StartChar: circumflex
Encoding: 195 710 207
Width: 600
Flags: HMW
HStem: 590 64<320 320>
VStem: 124 352<495 495>
LayerCount: 2
Fore
SplineSet
124 495 m 1
 292 654 l 1
 367 654 l 1
 476 495 l 1
 433 477 l 1
 320 590 l 1
 158 477 l 1
 124 495 l 1
EndSplineSet
EndChar

StartChar: caron
Encoding: 207 711 208
Width: 600
Flags: HMW
HStem: 492 62<235 282 282 282 282 309>
VStem: 124 352<648 649>
LayerCount: 2
Fore
SplineSet
235 492 m 1
 124 648 l 1
 165 668 l 1
 282 554 l 1
 440 669 l 1
 476 649 l 1
 309 492 l 1
 235 492 l 1
EndSplineSet
EndChar

StartChar: breve
Encoding: 198 728 209
Width: 600
Flags: HMW
HStem: 501 39<266.5 315 266.5 320>
VStem: 151 297<609 609>
LayerCount: 2
Fore
SplineSet
151 609 m 1
 195 609 l 1
 206 566 245 540 288 540 c 0
 342 540 389 579 405 609 c 1
 448 609 l 1
 419 550 358 501 282 501 c 0
 225 501 173 530 151 609 c 1
EndSplineSet
EndChar

StartChar: dotaccent
Encoding: 199 729 210
Width: 600
Flags: HMW
HStem: 477 103<247 353 270 330>
LayerCount: 2
Fore
SplineSet
247 477 m 1
 270 580 l 1
 353 580 l 1
 330 477 l 1
 247 477 l 1
EndSplineSet
EndChar

StartChar: ring
Encoding: 202 730 211
Width: 600
Flags: HMW
HStem: 463 51<286 304.5 286 310> 577 50<295 313>
VStem: 216 51<531.5 548.5 531.5 553.5> 333 51<543 560>
LayerCount: 2
Fore
SplineSet
267 538 m 0
 267 525 278 514 294 514 c 0
 315 514 333 533 333 553 c 0
 333 567 321 577 305 577 c 0
 285 577 267 559 267 538 c 0
216 527 m 0
 216 580 263 627 315 627 c 0
 356 627 384 599 384 561 c 0
 384 509 336 463 284 463 c 0
 243 463 216 491 216 527 c 0
EndSplineSet
EndChar

StartChar: ogonek
Encoding: 206 731 212
Width: 600
Flags: HMW
HStem: -148 52<264.5 320.5> -20 20G<304 370 370 370>
VStem: 229 65<-85.5 -78>
LayerCount: 2
Fore
SplineSet
304 0 m 1
 370 0 l 1
 344 -15 294 -41 294 -80 c 0
 294 -91 302 -96 312 -96 c 0
 329 -96 353 -86 361 -72 c 1
 345 -127 l 1
 325 -141 303 -148 282 -148 c 0
 247 -148 229 -127 229 -99 c 0
 229 -57 265 -19 304 0 c 1
EndSplineSet
EndChar

StartChar: tilde
Encoding: 196 732 213
Width: 600
Flags: HMW
HStem: 489 50<352 381 352 389> 557 49<202.5 230>
LayerCount: 2
Fore
SplineSet
91 504 m 1
 126 570 177 606 228 606 c 0
 261 606 285 587 306 569 c 0
 325 553 341 539 363 539 c 0
 399 539 445 577 459 603 c 1
 508 593 l 1
 478 537 420 489 358 489 c 0
 328 489 306 504 286 520 c 0
 263 538 243 557 217 557 c 0
 182 557 147 508 140 493 c 1
 91 504 l 1
EndSplineSet
EndChar

StartChar: hungarumlaut
Encoding: 205 733 214
Width: 600
Flags: HMW
HStem: 497 21G<137 137 307 307> 652 20G<274 274 443 443>
LayerCount: 2
Fore
SplineSet
103 517 m 1
 274 672 l 1
 331 639 l 1
 137 497 l 1
 103 517 l 1
273 517 m 1
 443 672 l 1
 497 639 l 1
 307 497 l 1
 273 517 l 1
EndSplineSet
EndChar

StartChar: endash
Encoding: 177 8211 215
Width: 600
Flags: HMW
HStem: 231 54<69 531 80 520>
LayerCount: 2
Fore
SplineSet
69 231 m 1
 80 285 l 1
 531 285 l 1
 520 231 l 1
 69 231 l 1
EndSplineSet
EndChar

StartChar: emdash
Encoding: 208 8212 216
Width: 600
Flags: HMW
HStem: 231 54<-6 606 5 595>
LayerCount: 2
Fore
SplineSet
-6 231 m 1
 5 285 l 1
 606 285 l 1
 595 231 l 1
 -6 231 l 1
EndSplineSet
EndChar

StartChar: quoteleft
Encoding: 96 8216 217
Width: 600
Flags: HMW
VStem: 295 62<328 328>
LayerCount: 2
Fore
SplineSet
295 328 m 1
 243 562 l 1
 332 562 l 1
 357 328 l 1
 295 328 l 1
EndSplineSet
EndChar

StartChar: quoteright
Encoding: 39 8217 218
Width: 600
Flags: HMW
HStem: 542 20G<315 406 406 406>
VStem: 194 62<328 328>
LayerCount: 2
Fore
SplineSet
194 328 m 1
 315 562 l 1
 406 562 l 1
 256 328 l 1
 194 328 l 1
EndSplineSet
EndChar

StartChar: quotesinglbase
Encoding: 184 8218 219
Width: 600
Flags: HMW
HStem: 80 20G<314 406 406 406>
VStem: 194 63<-134 -134>
LayerCount: 2
Fore
SplineSet
194 -134 m 1
 314 100 l 1
 406 100 l 1
 257 -134 l 1
 194 -134 l 1
EndSplineSet
EndChar

StartChar: quotedblleft
Encoding: 170 8220 220
Width: 600
Flags: HMW
HStem: 542 20G<160 250 250 250 325 414 414 414>
VStem: 212 62<328 328> 379 60<328 328>
LayerCount: 2
Fore
SplineSet
212 328 m 1
 160 562 l 1
 250 562 l 1
 274 328 l 1
 212 328 l 1
379 328 m 1
 325 562 l 1
 414 562 l 1
 439 328 l 1
 379 328 l 1
EndSplineSet
EndChar

StartChar: quotedblright
Encoding: 186 8221 221
Width: 600
Flags: HMW
HStem: 542 20G<234 320 320 320 395 481 481 481>
VStem: 118 59<328 328> 280 60<328 328>
LayerCount: 2
Fore
SplineSet
118 328 m 1
 234 562 l 1
 320 562 l 1
 177 328 l 1
 118 328 l 1
280 328 m 1
 395 562 l 1
 481 562 l 1
 340 328 l 1
 280 328 l 1
EndSplineSet
EndChar

StartChar: quotedblbase
Encoding: 185 8222 222
Width: 600
Flags: HMW
HStem: 80 20G<232 319 319 319 394 481 481 481>
VStem: 118 59<-134 -134> 280 60<-134 -134>
LayerCount: 2
Fore
SplineSet
118 -134 m 1
 232 100 l 1
 319 100 l 1
 177 -134 l 1
 118 -134 l 1
280 -134 m 1
 394 100 l 1
 481 100 l 1
 340 -134 l 1
 280 -134 l 1
EndSplineSet
EndChar

StartChar: dagger
Encoding: 178 8224 223
Width: 600
Flags: HMW
HStem: 359 59 560 20G<308 367 367 367>
VStem: 172 59<-78 -78>
LayerCount: 2
Fore
SplineSet
172 -78 m 1
 263 365 l 1
 135 365 l 1
 146 418 l 1
 274 418 l 1
 308 580 l 1
 367 580 l 1
 332 418 l 1
 464 418 l 1
 452 365 l 1
 321 365 l 1
 231 -78 l 1
 172 -78 l 1
EndSplineSet
EndChar

StartChar: daggerdbl
Encoding: 179 8225 224
Width: 600
Flags: HMW
HStem: 103 59<97 242 110 229 110 293 306 425> 370 58<165 286 155 297 165 349 361 479> 560 20G<329 393 393 393>
LayerCount: 2
Fore
SplineSet
97 103 m 1
 110 162 l 1
 242 162 l 1
 286 370 l 1
 155 370 l 1
 165 428 l 1
 297 428 l 1
 329 580 l 1
 393 580 l 1
 361 428 l 1
 491 428 l 1
 479 370 l 1
 349 370 l 1
 306 162 l 1
 437 162 l 1
 425 103 l 1
 293 103 l 1
 254 -78 l 1
 190 -78 l 1
 229 103 l 1
 97 103 l 1
EndSplineSet
EndChar

StartChar: bullet
Encoding: 183 8226 225
Width: 600
Flags: HMW
HStem: 130 21G<242 311> 363 20G<283.5 354.5>
LayerCount: 2
Fore
SplineSet
169 232 m 0
 169 313 244 383 323 383 c 0
 386 383 430 338 430 279 c 0
 430 201 349 130 273 130 c 0
 211 130 169 175 169 232 c 0
EndSplineSet
EndChar

StartChar: ellipsis
Encoding: 188 8230 226
Width: 600
Flags: HMW
HStem: -15 126<90 109.5 290 309.5 490 509.5>
VStem: 35 129<37.5 57> 235 129<37.5 57> 435 129<37.5 57>
CounterMasks: 1 70
LayerCount: 2
Fore
SplineSet
435 38 m 0
 435 76 471 111 509 111 c 0
 540 111 564 89 564 58 c 0
 564 17 528 -15 491 -15 c 0
 456 -15 435 11 435 38 c 0
35 38 m 0
 35 76 71 111 109 111 c 0
 140 111 164 89 164 58 c 0
 164 17 128 -15 91 -15 c 0
 56 -15 35 11 35 38 c 0
235 38 m 0
 235 76 271 111 309 111 c 0
 340 111 364 89 364 58 c 0
 364 17 328 -15 291 -15 c 0
 256 -15 235 11 235 38 c 0
EndSplineSet
EndChar

StartChar: perthousand
Encoding: 189 8240 227
Width: 600
Flags: HMW
HStem: -15 55<132.5 178 132.5 180 421.5 467> 181 54<153.5 199 442.5 488> 372 55<177.5 223 177.5 225> 568 54<198.5 244>
VStem: 31 57<77 118.5 77 124.5> 283 57<492 528.5> 320 57<77 118.5 77 124.5> 527 57<105 141.5>
LayerCount: 2
Fore
SplineSet
88 94 m 0
 88 60 114 40 151 40 c 0
 205 40 238 84 238 126 c 0
 238 157 219 181 179 181 c 0
 128 181 88 143 88 94 c 0
31 87 m 0
 31 162 103 235 186 235 c 0
 264 235 295 191 295 137 c 0
 295 57 222 -15 138 -15 c 0
 70 -15 31 30 31 87 c 0
377 94 m 0
 377 60 403 40 440 40 c 0
 494 40 527 84 527 126 c 0
 527 157 508 181 468 181 c 0
 417 181 377 143 377 94 c 0
320 87 m 0
 320 162 392 235 475 235 c 0
 553 235 584 191 584 137 c 0
 584 57 511 -15 427 -15 c 0
 359 -15 320 30 320 87 c 0
20 225 m 1
 16 276 l 1
 488 442 l 1
 492 389 l 1
 20 225 l 1
133 481 m 0
 133 447 159 427 196 427 c 0
 250 427 283 471 283 513 c 0
 283 544 264 568 224 568 c 0
 173 568 133 530 133 481 c 0
76 474 m 0
 76 549 148 622 231 622 c 0
 309 622 340 578 340 524 c 0
 340 444 267 372 183 372 c 0
 115 372 76 417 76 474 c 0
EndSplineSet
EndChar

StartChar: guilsinglleft
Encoding: 172 8249 228
Width: 600
Flags: HMW
HStem: 426 20G<459 459>
VStem: 132 93<254 257>
LayerCount: 2
Fore
SplineSet
132 257 m 1
 459 446 l 1
 468 390 l 1
 225 254 l 1
 402 117 l 1
 372 70 l 1
 132 257 l 1
EndSplineSet
EndChar

StartChar: guilsinglright
Encoding: 173 8250 229
Width: 600
Flags: HMW
HStem: 426 20G<228 228>
VStem: 370 98<257 265>
LayerCount: 2
Fore
SplineSet
141 70 m 1
 132 125 l 1
 370 265 l 1
 197 399 l 1
 228 446 l 1
 468 257 l 1
 141 70 l 1
EndSplineSet
EndChar

StartChar: fraction
Encoding: 164 8260 230
Width: 600
Flags: HMW
HStem: -57 21G<51 51> 645 20G<549 549>
LayerCount: 2
Fore
SplineSet
19 -29 m 1
 549 665 l 1
 581 637 l 1
 51 -57 l 1
 19 -29 l 1
EndSplineSet
EndChar

StartChar: lira
Encoding: 340 8356 231
Width: 600
Flags: HMW
HStem: -21 58<337 368 337 370> 185 57<69 167 69 169 53 167 226 226 226 406> 322 56<97 162 97 163 83 162 217 217 217 427> 553 58<346.5 403.5>
VStem: 162 54<378 408 378 422 378 472>
LayerCount: 2
Fore
SplineSet
48 31 m 1
 129 95 169 131 169 185 c 1
 53 185 l 1
 69 242 l 1
 167 242 l 1
 166 255 164 289 163 322 c 1
 83 322 l 1
 97 378 l 1
 162 378 l 1
 161 397 161 413 162 422 c 0
 162 522 266 611 386 611 c 0
 503 611 533 554 551 498 c 1
 496 481 l 1
 480 531 430 553 377 553 c 0
 316 553 216 512 216 408 c 2
 216 378 l 1
 443 378 l 1
 427 322 l 1
 217 322 l 1
 218 288 219 253 220 242 c 1
 420 242 l 1
 406 185 l 1
 226 185 l 1
 223 142 203 87 142 50 c 1
 171 61 201 68 230 68 c 0
 254 68 271 65 288 57 c 0
 306 49 324 37 350 37 c 0
 386 37 442 58 462 70 c 1
 476 25 l 1
 438 -3 392 -21 348 -21 c 0
 321 -21 300 -10 281 -2 c 0
 262 5 244 9 224 9 c 0
 208 9 117 1 64 -21 c 1
 48 31 l 1
EndSplineSet
EndChar

StartChar: Euro
Encoding: 341 8364 232
Width: 600
Flags: HMW
HStem: 0 52<252.5 323.5> 194 52<-2 76 27 74 129 344> 307 52<48 85 18 103 48 140 158 400> 510 52<325 404>
VStem: 85 55<307 307> 512 51<371 371>
LayerCount: 2
Fore
SplineSet
-2 194 m 1
 27 246 l 1
 76 246 l 1
 78 262 80 283 85 307 c 1
 18 307 l 1
 48 359 l 1
 103 359 l 1
 150 473 258 562 384 562 c 0
 452 562 500 545 540 512 c 1
 551 562 l 1
 602 562 l 1
 563 371 l 1
 512 371 l 1
 528 449 l 1
 499 486 438 510 370 510 c 0
 280 510 199 449 158 359 c 1
 430 359 l 1
 400 307 l 1
 140 307 l 1
 135 289 132 266 129 246 c 1
 372 246 l 1
 344 194 l 1
 129 194 l 1
 139 98 205 52 300 52 c 0
 365 52 435 78 492 114 c 1
 506 70 l 1
 440 28 361 0 286 0 c 0
 147 0 79 79 74 194 c 1
 -2 194 l 1
EndSplineSet
EndChar

StartChar: prescription
Encoding: 342 8478 233
Width: 600
Flags: HMW
HStem: -15 55<5 103 16 103 161 234 486 583> 221 54 507 55<125 200 114 439 257 257 257 409>
VStem: 536 59<355.5 453>
LayerCount: 2
Fore
SplineSet
210 275 m 1
 317 275 l 2
 393 275 536 280 536 431 c 0
 536 475 487 507 409 507 c 2
 257 507 l 1
 210 275 l 1
5 -15 m 1
 16 40 l 1
 103 40 l 1
 200 507 l 1
 114 507 l 1
 125 562 l 1
 439 562 l 2
 543 562 595 498 595 432 c 0
 595 269 479 224 384 221 c 1
 401 195 421 162 441 127 c 1
 499 182 l 1
 546 152 l 1
 467 78 l 1
 486 40 l 1
 594 40 l 1
 583 -15 l 1
 444 -15 l 1
 438 0 431 17 422 35 c 1
 368 -15 l 1
 321 15 l 1
 396 86 l 1
 368 139 337 191 319 220 c 1
 199 220 l 1
 161 40 l 1
 245 40 l 1
 234 -15 l 1
 5 -15 l 1
EndSplineSet
EndChar

StartChar: trademark
Encoding: 343 8482 234
Width: 600
Flags: HMW
HStem: 263 21G<43 43 43 94 218 218 218 266 338 338 338 402 470 470 470 520> 518 44<24 99 14 245 149 149 149 235>
VStem: 43 51<263 263> 218 48<263 263> 470 50<263 263>
LayerCount: 2
Fore
SplineSet
43 263 m 1
 99 518 l 1
 14 518 l 1
 24 562 l 1
 245 562 l 1
 235 518 l 1
 149 518 l 1
 94 263 l 1
 43 263 l 1
218 263 m 1
 284 562 l 1
 374 562 l 1
 381 319 l 1
 495 562 l 1
 586 562 l 1
 520 263 l 1
 470 263 l 1
 530 532 l 1
 402 263 l 1
 338 263 l 1
 326 533 l 1
 266 263 l 1
 218 263 l 1
EndSplineSet
EndChar

StartChar: arrowleft
Encoding: 344 8592 235
Width: 600
Flags: HMW
HStem: 115 21G<125 125> 273 50<89 616 63 627> 463 20G<212 212>
LayerCount: 2
Fore
SplineSet
125 115 m 1
 -26 297 l 1
 212 483 l 1
 221 427 l 1
 89 323 l 1
 627 323 l 1
 616 273 l 1
 63 273 l 1
 155 162 l 1
 125 115 l 1
EndSplineSet
EndChar

StartChar: arrowup
Encoding: 345 8593 236
Width: 600
Flags: HMW
HStem: 0 21G 603 20G
VStem: 244 50
LayerCount: 2
Fore
SplineSet
164 17 m 1
 216 15 l 1
 351 521 l 1
 435 403 l 1
 489 420 l 1
 351 612 l 1
 111 431 l 1
 162 408 l 1
 296 509 l 1
 164 17 l 1
EndSplineSet
EndChar

StartChar: arrowright
Encoding: 346 8594 237
Width: 600
Flags: HMW
HStem: 115 21G<390 390> 273 50 463 20G<477 477>
LayerCount: 2
Fore
SplineSet
-27 275 m 1
 513 275 l 1
 381 171 l 1
 390 115 l 1
 627 301 l 1
 477 483 l 1
 447 436 l 1
 539 325 l 1
 -16 325 l 1
 -27 275 l 1
EndSplineSet
EndChar

StartChar: arrowdown
Encoding: 347 8595 238
Width: 600
Flags: HMW
HStem: -6 21G<247 247> 572 20G<382 382>
LayerCount: 2
Fore
SplineSet
111 187 m 1
 247 -6 l 1
 489 176 l 1
 437 199 l 1
 301 99 l 1
 433 589 l 1
 382 592 l 1
 246 87 l 1
 164 204 l 1
 111 187 l 1
EndSplineSet
EndChar

StartChar: arrowboth
Encoding: 348 8596 239
Width: 600
Flags: HMW
HStem: 115 21G<124 124 393 393> 273 52<62 540> 463 20G<211 211 480 480>
LayerCount: 2
Fore
SplineSet
124 115 m 1
 154 162 l 1
 62 273 l 1
 514 274 l 1
 384 171 l 1
 393 115 l 1
 628 301 l 1
 480 483 l 1
 450 436 l 1
 540 325 l 1
 88 325 l 1
 220 427 l 1
 211 483 l 1
 -28 297 l 1
 124 115 l 1
EndSplineSet
EndChar

StartChar: minus
Encoding: 349 8722 240
Width: 600
Flags: HMW
HStem: 232 51<74 525 74 525>
LayerCount: 2
Fore
SplineSet
74 232 m 1
 74 283 l 1
 525 283 l 1
 525 232 l 1
 74 232 l 1
EndSplineSet
EndChar

StartChar: fi
Encoding: 174 64257 241
Width: 600
Flags: HMW
HStem: 0 53<-8 108 3 108 162 258 331 437 491 589> 354 53<72 169 62 179 72 224 234 331 427 499> 509 120<514 608 537 585>
VStem: 108 54<53 53> 437 54<53 53>
LayerCount: 2
Fore
SplineSet
-8 0 m 1
 3 53 l 1
 108 53 l 1
 169 354 l 1
 62 354 l 1
 72 407 l 1
 179 407 l 1
 203 505 l 2
 223 588 295 601 344 601 c 0
 363 601 408 596 434 592 c 1
 413 540 l 1
 394 544 372 548 350 548 c 0
 277 548 266 525 261 505 c 2
 234 407 l 1
 342 407 l 1
 331 354 l 1
 224 354 l 1
 162 53 l 1
 270 53 l 1
 258 0 l 1
 -8 0 l 1
320 0 m 1
 331 53 l 1
 437 53 l 1
 499 354 l 1
 417 354 l 1
 427 407 l 1
 563 407 l 1
 491 53 l 1
 600 53 l 1
 589 0 l 1
 320 0 l 1
514 509 m 1
 537 629 l 1
 608 629 l 1
 585 509 l 1
 514 509 l 1
EndSplineSet
EndChar

StartChar: fl
Encoding: 175 64258 242
Width: 600
Flags: HMW
HStem: 0 55<-8 110 3 110 164 260 332 440 496 591> 370 55<73 172 63 182 73 226 236 333> 574 55<310.5 363.5 461 542>
VStem: 110 54<55 55> 440 56<55 55>
LayerCount: 2
Fore
SplineSet
-8 0 m 1
 3 55 l 1
 110 55 l 1
 172 370 l 1
 63 370 l 1
 73 425 l 1
 182 425 l 1
 200 510 l 2
 213 580 264 629 355 629 c 0
 383 629 411 623 437 618 c 1
 417 564 l 1
 396 569 375 574 352 574 c 0
 269 574 257 532 253 510 c 2
 236 425 l 1
 344 425 l 1
 333 370 l 1
 226 370 l 1
 164 55 l 1
 272 55 l 1
 260 0 l 1
 -8 0 l 1
321 0 m 1
 332 55 l 1
 440 55 l 1
 542 574 l 1
 449 574 l 1
 461 629 l 1
 608 629 l 1
 496 55 l 1
 602 55 l 1
 591 0 l 1
 321 0 l 1
EndSplineSet
EndChar
